<svg id="svg-home-genesis" xmlns="http://www.w3.org/2000/svg" viewBox="0 0 320 240" style="enable-background:new 0 0 320 240" aria-labelledby="title" role="group"><style>@keyframes bounceUp{0%{transform: translateY(0px) scale(1.0)}10%{transform: translateY(1px) scale(0.99)}30%{transform: translateY(-5px) scale(1.01)}50%{transform: translateY(1px) scale(0.99)}60%{transform: translateY(0px) scale(1.0)}100%{transform: translateY(0px) scale(1.0)}}.animate-bounceUp{animation: bounceUp 2s ease-in-out infinite;visibility: visible;-webkit-backface-visibility: hidden}#svg-home-genesis *{-webkit-transition: all 0.3s ease-in-out;-moz-transition: all 0.3s ease-in-out;-ms-transition: all 0.3s ease-in-out;-o-transition: all 0.3s ease-in-out;transition: all 0.3s ease-in-out}#svg-home-genesis:hover .code,#svg-home-genesis:hover .settings,#svg-home-genesis:hover .plugins{animation: bounceUp 3s 0s ease infinite;transform-origin: right bottom}#svg-home-genesis:hover .eyes{transform: translate(-2px, -1px) }#svg-home-genesis:hover .settings{animation-delay: 0.45s}#svg-home-genesis:hover .plugins{animation-delay: 0.9s}#svg-home-genesis .gray{fill:#CFD8DC}#svg-home-genesis .dark{fill:#273339}#svg-home-genesis:hover .swirls{opacity: 1}#svg-home-genesis .swirls { opacity: 0; } #svg-home-genesis:hover .swirls { opacity: 1; } .sr-only { font-size: 0; }</style><title id="title">Genesis Framework illustration</title><text id="nvda-title" class="sr-only">Genesis Framework illustration</text><g class="base"><path class="gray" d="M305.1 206.4c-9.9-.5-83.8-.3-89.7-.6-5.8-.2-146.7 2.2-159.9 2.1-13.4-.1-27.3-2.9-40.6-.5-1.8.3-1.8 5.2 0 5.6 12.5 2.4 25.4 1.3 37.9 1.5 12.9.2 64.1.8 76.7.5 6.3-.1 32.9-.4 35.9-.3 1.3 0 23.9-1 33.6-1.5 5.7-.3 11.5-.9 17.2-.5 6.2.4 34.4 1.2 40.3 1.3 4.4.1 8.8.2 13.3.2 3.5 0 27.5-.1 35.7-1.9 2.5-.6 1.8-5.8-.4-5.9z"/><path class="dark" d="M304.4 205.9c-24 0-48-.4-72-.6-12-.1-24-.3-36-.3-6 0-12-.1-18 0-6 0-12 .1-18 .3-24 .6-48 1.8-72 1.7s-48-.9-72.1-1c-3.3 0-3.3 2.3 0 2.2 24 .1 48 .9 72.1 1s48.1-1.1 72.1-1.7l18-.3h18l36 .3c24 .3 48 .6 72.1.6 2.4 0 2.4-2.2-.2-2.2z"/></g><g class="person"><path class="gray" d="M233.2 60.8c-.4-.1-.8-.1-1.2-.2-.1-.6-.5-1.1-1.3-1.1-.5 0-1-.2-1.4-.5-.2-.2-.4-.4-.6-.7l-.1-.1c-.1-.2-.1-.5-.2-.7-.2-1.8-3.1-1.9-2.9 0 0 .2.1.5.1.7 0 .1.1.3.1.4.4 1.4 1.2 2.6 2.5 3.6 1.4 1 3.6 1.7 5.2.7.9-.5.8-1.9-.2-2.1z"/><path class="gray" d="M264.7 74.1c-1.5-4.5-5.7-4.3-5.8-4.3.2-.9-.6-2-1.7-1.6-1.6.6-2.5-.6-3.4-1.8-.3-.4-.6-.7-1-1 .1-1-.7-1.5-1.6-1.8-1.9-.5-2.9-1.1-3.7-2.7-.1-.7-.4-1.4-.7-2-.5-.8-1.1-1.5-1.9-2-.8-.5-2.9-1.2-1.1-1.9 1.9-.8.7-3.5-1.3-2.7-2.4 1-5 3.3-2.3 5.8 1.1 1.1 2.8 1.2 3.7 2.3 0 .1.5 1.4.7 1.9 0 1.3-.6 2.2-1.6 2.7h-.1c-1.1-.3-2.2-.8-3.4-1-1.5-.3-3.4-.4-4.4.8-.5 0-1 0-1.5.1-2.2.4-4.5 2.7-6.7 2.7-.1-.1-2.4-1.2-3-2.1-.8-1.1-.5-2.2-.7-3.5s-2-1.3-2.6-.3c-.8 1.2-2.7 4.9-2.8 5.1-.1.3 0 .8.3 1 .1 0 .1.1.2.1-1.1.8-2.4 1.7-3.8.9-.9-.5-1.2-1.8-.7-2.7.5-.3 1-.7 1.3-1.2.5-.8.7-1.8.4-2.6-.2-.4-.4-.8-.7-1.1l-.2-.2c.6-1.6 1.2-3.8 3.3-3.7.3 0 4.7 0 6.7-4 .8-1.7 1.1-3.9 2.5-5.1.2-2.2-2.2-1.7-2.9-1.1-.6.6-1.4 1.5-1.8 2.3-.9 1.8-.9 4.4-3.3 4.7-.7.1-1.6 1.4-1.5 1.6-1.6-.6-4.3.2-5.1 1.6-.5.8-1.5 4.7-1.8 5.6-.1.3 0 .6.3.9-2 .2-2.5 2.9-2.5 3.5.1 1.5 2.7 2.8 2.4 4.3-.2.8.4 1.8 1.3 1.7 1.2-.1 2.3-.2 3.5.1 1 .2 1.8.8 2.8.7.7-.1-3.7 4.9-2.5 7.3 0 0-1 15.9-.5 23.1-2.2 12.8 6.7 29.2 22 30.3 1 .1 1.8-.4.8-.9-3-1.4-5.5-3.1-7.7-5.1-8.5-5-13.4-15.5-11.3-25.4-.8-6.7-.7-13.7 2.3-19.8.8-2.3 2-4.4 3.9-6 .4-.4.9-.7 1.3-1 1.8-1.6 8.3-4 9.4-4.1 1.5-.4 2.9-.7 4.4-1.1 0 0 1.8 1.8 2.8 2.5.5.4 1.1.1 1.5-.4 1.8.1 2.6-.7 4.1-1.4.3-.9.8-1 1.4-.4.2.3 1.8 1.5 2.7 1.6 2.6.4 4.4-1.9 7.1 0 1.6 1.1 1.8 2.4 3.8 2.6.8.2 1.3-1.2.7-1.8z"/><path class="gray" d="M269.4 68.8c-.7-.6-1.3-1.5-2.1-2s-1.8-.4-2-1.2c-.3-.8-1.5-.7-1.5.2 0 1.4.7 2.6 1.8 3.5 1 .8 2.6 1.6 3.8.7.3-.3.3-.9 0-1.2z"/><path class="gray" d="M240.2 135.9c-1.7-.2-4 4.2-4.4 4.4-1 .6-8.4 5-11.5 6.8-3.6 2-4.8 3.8-6.4 7.6-1.4 5.9-6.1 12.1.7 13.6.1.1 5.2 2.4 6.4 1.7.3-.2.4-.6.2-.9-.7-1.1-2.1-1.2-3.1-1.8-.6-.3-1.1-.6-1.6-1-.3-.2-.5-.4-.8-.5-2.1-5.2 1.4-12 5.6-15.1 3.2-2.3 7.6-3.7 9.7-7.1.2.3 2.6.8 3.1.7.7-.2 1.2-1.8.4-2.2-.8-.3 1.1-.8 1.3-1.1.5-.5.4-2.4.6-3.1.5-.3 1.1-2.5-.2-2z"/><path class="gray" d="M214.3 96c-.2-1-1.2-1.6-2.2-1.4-.8.2-1.4 1.1-1.6 1.9-.2.8 0 1.6.4 2.3.5.9 1.6 1.6 2.6 1 .5-.3 1-3 .8-3.8z"/><path class="gray" d="M229.4 163.3c0-1.7-2.5-1.6-2.6 0-.2 5.7-1.9 26.9.3 30.9.2.4.9.4 1.2 0 .1-.1 1.1-25.1 1.1-30.9z"/><path class="gray" d="M240.2 84.1c-4-.8-11.3-1-14.3 2.3-2.4 2.7-4.2 10.1-1.5 13 .4.4 1 .3 1.3-.2 1.7-2.9.3-6.7 2-9.7 2.1-3.6 8.5-2.9 12.2-3.3 1.1-.1 1.6-1.8.3-2.1z"/><path class="gray" d="M261.2 86.4c-1.9-1.4-13.1-2.6-14.8-1.5-1.6 1-1.9 10.9-.8 13.1.5.9 2 .7 2.2-.3.4-1.6.2-3.2.3-4.8.2-2 .1-4.3 2.3-4.6 3.4-.5 7 .8 10.3-.1.6-.3 1-1.4.5-1.8z"/><path class="gray" d="M254.2 118.5c.9-.8 3.5-3.9 3.5-4.9 0-.5-.9-1.5-1.3-1.1-4.8 4.9-9.1 8.3-16.2 7.7-3-.3-13.8-7.6-13.8-7.5-1.4 6.4 9.3 9.5 13.9 9.9 2 .2 8.8 0 13.9-4.1z"/><path class="gray" d="M240 123.5c-.6-.1-.8.7-.4 1.1.5.5.6.8 1.3 1.1.7.3 1.5.4 2.3.3 1.1-.1 2.4-.4 3.1-1.2 0-2.7-5.9-1.2-6.3-1.3z"/><path class="gray" d="M273.2 96.3c-.3-.6-1.1-.8-1.7-.6-.7.3-.9.9-.8 1.6 0 .1-.6.3-.9.5-.6.3-.8 1.2-.5 1.8-.4 1.1 1.3 1.5 1.3 1.5.1 0 1.9-.2 2.4-1.4.6-1 .8-2.4.2-3.4z"/><path class="gray" d="M255.1 165.6c-.5-1.5-.9-3-1.9-4.2-.5-.6-1.3-.1-1.4.6-.1 1.7-.4 4.9 0 6.5.4 1.4 1.4 2.8 4.2 1.7.6-1.5-.4-3.2-.9-4.6z"/><path class="dark" d="M244.9 107.4c-.3.5-1.1.9-1.8.9-.8.1-1.5-.2-1.9-.7s-.6-1.3-.4-2c.2-.7.7-1.4 1.3-1.6.1 0-.7-2.2-.9-2.1-1.4.6-2.2 1.9-2.6 3.1-.3 1.3-.1 2.8.8 4 1 1.2 2.4 1.6 3.8 1.5 1.3-.1 2.7-.7 3.6-2 .1 0-1.9-1.1-1.9-1.1z"/><path class="dark" d="M259.1 112l-.8-.8c-.2-.2-.4-.4-.6-.5 0-.1-.1-.2-.1-.2-.4.4-1 .6-1.6.6-.6 0-1.2-.2-1.6-.6 0 0-.1.1-.3.2-.2.1-.4.3-.6.5l-.8.8c.4.4.8.6 1.2.8-3.1 3.6-7.9 5.8-12.7 5.7-5-.1-9.8-2.6-12.9-6.5.5-.3 1-.7 1.5-1.1l-.8-.8c-.2-.2-.4-.4-.6-.5-.2-.1-.3-.2-.3-.2-.9.9-2.2 1.4-3.4 1.4v2.2c.5 0 1 0 1.4-.1 3.5 4.8 9.2 7.7 15.1 7.8 5.9.1 11.7-2.8 15.3-7.5.9-.1 1.9-.5 2.6-1.2z"/><path class="dark" d="M246.2 121.7c-2.4.5-4.8.7-7.2.5-.1 0-.3 2.2-.2 2.2 2.6.2 5.3.1 7.9-.5l-.5-2.2z"/><path class="dark" d="M234.1 77.7c-4.1.5-8 2.3-11.1 5-.1.1 1.4 1.8 1.5 1.7 2.7-2.4 6.2-4 9.8-4.5.2 0-.1-2.2-.2-2.2z"/><path class="dark" d="M263.4 82.3c-1.9-3-5.6-4.6-9.2-3.9-.1 0 .3 2.2.4 2.2 2.5-.5 5.5.7 6.8 2.9.1.1 2-1.1 2-1.2z"/><path class="dark" d="M228.3 68.7c-.3.6-.9 1.1-1.5 1.2-.3.1-.6.1-.9 0-.1-.1-.3-.1-.4-.2l-.6-.4c-.3-.2-.6-.4-1.1-.5-.4-.1-.9-.1-1.3.1-.8.3-1.3.8-1.7 1.2-.4.5-.7 1-1 1.5s-.4.9-.7 1.2c-.2.4-.5.7-.7.9-.2.2-.3.2-.5.2-.1 0-.4-.2-.7-.5s-.7-.7-1.2-1.1c-1.2-.9-2.8-.9-4-.4s-2.2 1.6-2.6 2.8c-.1.4 2.1.9 2.1.7.2-.6.7-1.2 1.4-1.5.6-.3 1.3-.2 1.8.1.3.2.6.5 1 .9s.9.8 1.8 1c.9.2 1.8-.2 2.3-.6.6-.4.9-.9 1.2-1.4s.6-1 .8-1.4.4-.8.7-1.1c.2-.3.5-.5.7-.6.2 0 .1-.1.4.1l.6.4c.3.2.6.4 1 .5.7.2 1.4.2 2.1.1 1.3-.3 2.5-1.2 3.1-2.4.1-.1-2-.9-2.1-.8z"/><path class="dark" d="M252.4 67.7c-.4-.2-.9-.8-1.5-1.4-.3-.3-.6-.7-1.1-1.1-.4-.3-1.1-.7-1.8-.7s-1.4.3-1.9.6-.8.7-1.1 1c-.6.7-1.2 1.3-1.6 1.6-.2.1-.3.1-.4.1-.1 0-.3-.1-.5-.3-.4-.5-1-1.4-1.8-2s-2-1.3-3.5-.8c-.6.3-1.1.7-1.5 1.2s-.6 1.2-.5 2c0 .2.6.2 1.1.1s1.1-.3 1.1-.3c-.1-.3.2-.7.6-.9.2-.1.8 0 1.3.4s.9 1 1.6 1.8c.4.4.9.9 1.7 1 .7.2 1.6-.1 2-.4 1-.7 1.5-1.4 2.1-2 .3-.3.5-.6.8-.7.2-.2.4-.2.5-.2.2 0 .7.4 1.3 1s1.1 1.4 2.3 2c.2.2.9-2 .8-2z"/><path class="dark" d="M276.9 75.2c-.1.5-.3.9-.5 1.4-.2.4-.4.9-.6 1.1s-.2.2-.4.2-.5-.2-.8-.6c-.6-.6-.9-1.7-1.9-2.7-.5-.5-1.2-1.1-2.1-1.2s-1.6.2-2.2.5-1 .5-1.5.7c-.4.2-.8.3-.9.2-.2 0-.3-.1-.5-.4s-.3-.8-.5-1.3c-.1-.5-.3-1.1-.5-1.7s-.7-1.3-1.3-1.8c-.6-.5-1.3-.8-2.1-.9-.8-.1-1.8.1-2.4.7-.4.4 1.4 1.7 1.5 1.7.2-.1.4-.2.6-.2.3 0 .6.2.9.4.3.2.5.5.6.9.2.4.3.9.4 1.5.2.6.3 1.2.7 1.8.4.7 1.1 1.3 2.1 1.5s1.7-.2 2.3-.4c.6-.3 1-.5 1.5-.7.4-.2.8-.3 1-.3s.4.1.7.4c.3.3.5.7.8 1.2.3.4.6 1 1.1 1.5s1 1 1.9 1.3c.5.1 1 .1 1.5-.1s.8-.5 1.1-.8c.5-.6.7-1.1 1-1.7l.6-1.8c.1-.2-2.1-.6-2.1-.4z"/><path class="dark" d="M219.6 54c-.9.2-1.9.1-3.2.1-.6 0-1.3 0-2.1.3-.7.2-1.4.6-2 1.1-1.1 1-1.7 2.3-2 3.6-.1.7-.2 1.4-.1 2.1 0 .2 0 .4.1.5v.3l-.2.1c-.4.2-.9.4-1.3.7-.8.6-1.5 1.4-1.8 2.4-.4 1.1-.3 2.2.1 3.1.2.5.5 1 .9 1.4s1 .8 1.8.8c.3 0 .3-.5.3-1.1 0-.3-.1-.6-.1-.8v-.3c-.1 0-.5-.3-.7-.8s-.2-1.1-.1-1.6c.2-.5.5-1 1-1.3.2-.2.5-.3.8-.5l.1-.1c.1 0 .2-.1.3-.1l.6-.2 1.2-.3c-.2-.6-.5-1.1-.6-1.7l-.1-.4v-.2-.3c0-.5 0-1 .1-1.4.2-.9.7-1.9 1.3-2.4.3-.3.7-.5 1.1-.6.4-.1.9-.2 1.4-.2 1.1 0 2.3.2 3.8-.1.2 0-.5-2.2-.6-2.1z"/><path class="dark" d="M238.2 50.3c-.1-.6-.4-1.3-.9-1.8-.4-.6-1-1-1.7-1.3-1.3-.6-2.6-.6-3.9-.2l-.9.3c-.3.1-.6.3-.8.4-.4.3-.8.5-1 .4h-.1l-.2-.2c-.2-.3-.3-.8-.6-1.4-.1-.3-.3-.6-.6-.9-.3-.3-.8-.6-1.3-.7-1-.1-1.7.2-2.2.5-1.1.7-2 1.6-2.6 2.7-.6 1.1-.9 2.3-.9 3.6 0 .4 2.3.2 2.2 0 0-1.7 1-3.5 2.4-4.3.4-.2.7-.3.8-.3h.1c.1.1.1.2.2.4.2.4.4.9.7 1.5.2.3.5.7.9.9.4.3 1 .4 1.4.4.9-.1 1.5-.5 1.9-.8.2-.2.4-.2.6-.3.2-.1.4-.2.6-.2.8-.2 1.7-.2 2.3.1.7.3 1 .8 1.3 1.7.1.5.2 1.1.6 1.8.2.4.5.7.9.9.4.3 1 .5 1.7.3.3-.1.1-.7-.1-1.1-.1-.2-.6-1.9-.8-2.4z"/><path class="dark" d="M258.9 52.4c.1 0 0 0 0 0 0-.1.2-.6.3-1.3.1-.7.1-1.3-.1-2-.2-.6-.5-1.3-.9-1.8-.5-.5-1.1-1-1.8-1.1-.7-.2-1.5-.2-2.2.1-.4.1-.6.3-.8.4l-.2.1-.3-.4c-.4-.5-1.1-1-1.8-1.2-1.5-.4-2.8.2-3.8.9-1 .8-1.6 1.8-2.2 2.7-.5.9-1 1.8-1.5 2.5-.2.3-.5.5-.6.6-.1 0-2.3.8-1.9 1.4.3.4.8.7 1.2.8.5.1.9.1 1.4-.1.9-.3 1.3-.9 1.7-1.4.7-1 1.1-1.9 1.6-2.7s1-1.6 1.6-2c.6-.5 1.4-.7 1.9-.5.3.1.4.2.7.5l.7.7c.4.3.9.5 1.4.5.3 0 1.1-.4 1.2-.4.3-.1.5-.3.6-.3.2-.1.5-.1.8 0 .6.1 1 .6 1.2 1.3.1.3.1.7 0 1 0 .3-.3.8-.4 1.6 0 .4.1.7.2 1s.4.7 1 1c.2.1.4 0 .5-.2s.1-.5.1-.8c-.1-.2.2-.8.4-.9z"/><path class="dark" d="M275.6 64.2c-.1-.2-.2-.5-.1-.7.1-.4.2-.8.3-1.3.1-.5.2-1.1.1-1.9-.1-.7-.5-1.5-1.2-1.9s-1.3-.5-1.8-.6c-1.1-.1-1.9-.2-2.3-.5-.2-.1-.3-.3-.5-.6-.1-.3-.3-.8-.5-1.3-.4-1.1-1.2-2.1-2.3-2.7-1.1-.6-2.5-.8-3.7-.4-1.2.4-2.2 1.3-2.8 2.3-.2.3 1.9 1.3 1.9 1.1.4-.6.9-1.1 1.6-1.3.6-.2 1.3-.1 1.9.2s1.1.9 1.3 1.6c.1.4.8 2 1 2.3.2.3.5.6.8.8.6.4 4.1.9 4.2 1 .1.1.2.2.3.4.1.5-.2 1.4-.4 2.5-.1.8 0 1.4.4 2.1.2.3.4.6.8 1 .2.1.5.3.8.4s.7 0 1-.1 0-.7-.3-1.1c-.4-.5-.5-.8-.5-.8v-.5z"/><path class="dark" d="M278.2 71.6c.3-.7.3-1.3.2-2-.1-.7-.4-1.3-.9-1.9l-1.6 1.5c.3.3.4 1 .2 1.5l2.1.9z"/><path class="dark" d="M221.3 60.6c-1.3.3-2.2 1.2-2.7 2.1-.5 1-.8 2.1-.6 3.2l2.2-.3c-.1-.6.1-1.2.4-1.8.3-.5.8-.9 1.2-1 0 0-.1-.6-.2-1.1-.2-.6-.3-1.1-.3-1.1z"/><path class="dark" d="M232.4 58.2c-1 0-2.2-1.4-2.2-2.6h-1.1c-.6 0-1.1 0-1.1.1 0 1.2.5 2.2 1.2 3.1.7.9 1.8 1.6 3.1 1.7 0 0 .1-.6.1-1.1v-.8-.4z"/><path class="dark" d="M248.7 58.7c-.2-.3-1.1-2-1.4-2.3-.2-.2-.3-.3-.6-.5s-.6-.3-.9-.3c-.6 0-1.1.1-1.6.5s-.7.9-.7 1.5c0 .1.6.2 1.1.2s.9 0 1 .1.2.3.3.5c.2.4.4 1 .9 1.6.2.3.5.6.9.9.4.3 1.1.5 1.7.3.1 0-.1-.6-.2-1.1-.1-.3-.4-1.3-.5-1.4z"/><path class="dark" d="M261.1 58.3c-.5 0-1.1 0-1.8.2-.6.1-1.4.5-1.9 1.1-.6.7-.7 1.5-.6 2.2 0 .4.1.8.4 1.2.2.4.7.8 1.2.9.1 0 .3-.5.4-1 .2-.5.3-1 .3-1v-.8c.2-.3.9-.5 1.9-.5.1 0 .1-2.3.1-2.3z"/><path class="dark" d="M268.5 68.9c.5-.4.6-1 .6-1.4s-.1-.8-.3-1.1c-.1-.2-.2-.3-.3-.5-.1-.2-.8-.7-1-.8s-.3-.2-.3-.3l-1.6-1.5c-.3.3-.5.6-.6 1.1-.1.4 0 .8.1 1.1.1.4.4.8.6 1s.5.4.6.5c.2.1 1.4.9 1.5 1 .3.5.7.9.7.9z"/><path class="dark" d="M276.7 95.2c-.2-.9-.8-1.8-1.7-2.3-.7-.4-1.3-.5-2-.6-.1-.5-.2-1.2-.7-1.8-.4-.5-1-.8-1.3-.9.2-2.4.3-4.7.4-7.1.1-1.3-2.1-1.4-2.2-.1-.1 2.2-.2 4.4-.4 6.6-.4 0-.8-.1-1.1-.1l-2.5-.1v-.2c-.1-.7-.4-1.5-.7-2.3-.4-.8-1-1.5-1.7-2-1.5-1-3.1-1.1-4.4-1.3l-7.7-.7c-.6-.1-2.2-.1-2.2-.1-.9-.1-10.9 0-10.9 0-.5 0-.9.1-1.3.1l-7.7.7c-1.3.1-2.9.3-4.4 1.3-.7.5-1.4 1.2-1.7 2-.2.5-.4.9-.5 1.4-1.6 0-3.2 0-4.9.1h-.7c.2-2.9.5-5.7.8-8.5.2-1.6-2.1-1.9-2.2-.3-.4 3-.6 6.1-.8 9.1-.1 0-.3.1-.5.2-.4.1-.8.3-1.1.6l-.8.8c-.2.3-.3.4-.5.8-.1.1-.2.3-.3.6h-.1c-.9.3-1.7.9-2.3 1.6-.6.7-1 1.5-1.1 2.6-.1 1 .1 2 .5 2.8.4.8 1 1.5 1.7 2s1.5 1 2.3 1.2c.6.2 1.2.3 1.8.2 0 1.2 0 2.4.1 3.6.1 2.9.2 5.8.7 8.8.2 1.5.6 3 1.1 4.4.5 1.4 1.2 2.8 1.9 4.1 1.5 2.6 3.2 5.1 5.4 7.2.6.5 1.1 1 1.8 1.5.6.5 1.3.8 1.9 1.2 1.3.7 2.6 1.4 4 2 2.1.8 4.3 1.4 6.5 1.8v1.5c-.1-.1-2.1.7-3 1.6-.3.3-.8.9-.8.9-1.3 1-8.1 4.6-9.7 5.6-1.6 1.1-3.4 2.1-4.6 4.1-1 1.8-1.7 3.6-2.3 5.4-.6 1.8-1.1 3.7-1.6 5.5 0 0-1.1 3.6-1.2 4.1-.1.5-.2 1.3.1 2.1.4.8 1.1 1.2 1.5 1.4l2 1.1c-1.5 8.1-2.1 16.4-1.9 24.7-.1.3 2.2.2 2.2 0-.2-7.9.4-15.7 1.7-23.5.7.4 1.6.8 2.7 1 .7.1 1.6.1 2.3-.2-.2 2.2-.3 4.4-.4 6.7-.2 5.3-.1 10.7.4 16 .1.3 2.3.1 2.3-.2-.5-5.2-.6-10.5-.4-15.7.2-5.3.7-10.5 1.5-15.7.1-.4-2.2-.8-2.2-.4-.4 2.4-.7 4.8-1 7.3-.3-.2-1.6.2-2.2.1-.7-.1-1.4-.5-2.2-1l-2.5-1.4c-.8-.4-1.9-1-1.8-1.2 0 0-.1-.3 0-.6.1-.4 1.2-4 1.2-4 .5-1.8 1-3.7 1.6-5.4.6-1.7 1.2-3.5 2.1-5 .8-1.3 2.3-2.4 3.9-3.3 1.6-1 7.1-3.8 8.2-4.5.2.6.7 1.2 1 1.5.5.4.9.6 1.4.9 1 .5 2.1.8 3.1.9 1.1.1 2.2 0 3.3-.3 1-.3 2.2-.8 3-1.9.3-.5.5-.9.6-1.4 1.1.8 2.3 1.4 3.4 2.1 1.6.9 3.2 1.8 4.7 2.8s2.8 2.1 3.5 3.5c.8 1.5 3 8.5 3.5 10.3l1.1 4.4c-.1.2-1.2.8-1.9 1.2l-2.4 1.4c-.8.4-3.5 1.1-4.4 1.4-.3-2.6-.6-5.2-1-7.8 0-.4-2.3 0-2.2.4.9 5.2 1.4 10.4 1.5 15.7.2 5.3.1 10.5-.4 15.7 0 .3 2.2.5 2.3.2.5-5.3.6-10.7.4-16-.1-2.2-.2-4.5-.4-6.7.8.3 1.7.4 2.4.2.9-.2 1.7-.5 2.4-.9l.6 23.1c-.1.3 2.2.2 2.2 0l-.7-24.3 2-1.2c.4-.2 1-.5 1.5-1.2.2-.3.4-.8.4-1.1 0-.4-.3-2-.4-2.5 0 0-3.5-11.7-4.5-13.5-.2-.4-.5-.9-.9-1.3-.3-.4-.7-.8-1.1-1.1-.7-.7-1.5-1.3-2.3-1.8-1.6-1.1-3.2-2-4.8-2.9-1.6-.9-4.6-2.9-4.6-2.9-.3-.9-1.1-1.8-2.2-2.1v-1.4c1.8-.1 3.6-.4 5.3-.9 2.9-.8 5.6-2.1 8.2-3.7 1.3-.8 2.5-1.8 3.5-2.9 1.1-1.1 2-2.3 2.8-3.6 1.6-2.6 2.7-5.4 3.5-8.2 1.4-4.7 2.4-9.5 3.1-14.3 1.5.3 3.2-.1 4.4-.9 1.4-.9 2.6-2.4 2.8-4.2.1-.9.1-1.7-.1-2.6zm-62.9 1.2v2.8c-.9.1-1.9-.2-2.7-.9-.9-.7-1.5-1.9-1.4-2.8 0-.4.3-1 .6-1.4.3-.4.8-.7 1.2-.9.9-.3 1.7 0 2.4.6 0 .9-.1 1.7-.1 2.6zm32.2-8.9c.2-1 .7-1.8 1.3-2.1.2-.1.5-.2.8-.2.6-.1 1.3-.1 2.2 0l7.7.8c1.2.1 2.3.3 3 .8.6.4 1 1.2 1.2 2.3.2 1.1.2 2.3.2 3.6v3.5c0 1.1-.7 1.5-1.2 1.7-.8.3-2.1.4-3.3.5-2.5.2-4.9.1-7.3-.4-.6-.1-1.2-.3-1.8-.4-.6-.2-1.2-.4-1.5-.6-.4-.2-.5-.3-.7-.7-.2-.3-.3-.9-.3-1.5L246 91c-.1-1.3-.2-2.5 0-3.5zm-21.4 5.2c0-1.3 0-2.6.2-3.6.2-1.1.6-1.9 1.2-2.3.6-.5 1.7-.6 3-.8l7.7-.7c1.3-.1 2.4-.2 3 .2.6.3 1.1 1.1 1.3 2.1.2 1 .1 2.2 0 3.5l-.3 3.8c-.1.6-.2 1.1-.3 1.5-.2.3-.3.5-.7.7-.4.2-.9.4-1.5.6-.6.2-1.2.3-1.8.4-2.4.5-4.8.6-7.3.4-1.2-.1-2.6-.2-3.3-.5-.2-.1-.4-.2-.5-.3-1-.4-.7-1.5-.8-1.5l.1-3.5zm18.8 48.2c.1.7 0 1.5-.3 1.9-.3.5-1 .8-1.8 1.1-.8.2-1.6.3-2.4.2-.8-.1-1.6-.3-2.3-.7-.4-.2-.7-.4-1-.6-.3-.2-.3-.3-.4-.5-.1-.4.1-1.1.6-1.6.4-.4.8-.7 1.4-.9v.5h2.2v-3.9h.1c.5 0 1 .1 1.5.1v4.3c0 .1 2.2.1 2.2 0v-.5c.1.2.2.4.2.6zm21-24.5c-.8 2.7-1.9 5.3-3.3 7.7-1.4 2.4-3.3 4.3-5.7 5.8-2.3 1.5-4.9 2.7-7.6 3.5-2.7.8-5.5 1-8.2.8-2.8-.2-5.5-.8-8.1-1.9-2.5-1.1-5.1-2.4-7-4.3-2-1.9-3.6-4.2-5-6.6-1.4-2.4-2.2-5-2.7-7.8s-.6-5.6-.7-8.5c-.1-2.9-.1-5.7-.1-8.6 0-1.9.1-3.7.2-5.6.4 0 .7-.1 1.1-.1 1.4-.1 2.8-.1 4.3-.1v2s-.3 3.5-.3 3.6c0 .4 0 .8.1 1.2.1.5.4 1.1.8 1.5s.6.6.9.8c.4.3.8.5 1.2.7.8.3 1.6.5 2.3.6.7.1 1.3.1 2 .2 2.7.2 5.4.1 8.1-.4.7-.1 1.3-.3 2-.5.6-.2 1.3-.4 2.1-.8s1.6-1.2 2-2.1c.4-.8.5-1.6.6-2.3l.1-1.3.1 1.3c.1.7.2 1.5.6 2.3.3.9 1.2 1.7 2 2.1.8.4 1.5.6 2.1.8.7.2 1.3.4 2 .5 2.7.6 5.5.6 8.1.4.7 0 1.3-.1 2-.2s1.5-.2 2.3-.6c.4-.2.8-.4 1.2-.7.3-.3.5-.4.9-.8s.6-6.3.6-6.3v-.9l2.2.1c.3 0 .9.1 1 .1-.7 8.3-1.9 16.5-4.2 24.4zm8.5-16.3c-.9.6-2 .8-3 .5.3-1.9.5-3.8.7-5.8 0 0 2.6-.5 3.3-.1.3.2.5.5.7 1 .1.5.1 1.1.1 1.7-.1 1.1-.8 2.1-1.8 2.7z"/></g><g class="computer"><path class="gray" d="M132.5 117.7c-6.5-.3-54.1 1.2-56.7 2.2-7.3.3-3 12.9-3.9 26.4.1 1.2 1.8 1.2 1.9.2 1.5-5.8-.3-13.8 3-18.8 1.5-2.3 2.3-1.9 4.7-2 1.7-.1 3.5-.2 5.2-.3.8 0 1.6-.1 2.4-.1.6.9 1 1.8 1.3 2.8-.1 1.8 0 3.5-.1 5.2-.1 4.2-.7 9.2.9 13.2 4.5 3.7 4.2-.5 4.3-.7 2.1-3.3 2-7.8 2.1-11.6 0-2.3-.5-4.8-.3-7.1.2-1.9 1.8-4.5 3.7-5.3 1-.4 3 .2 4.1.2 8.8.4 19.6.7 27.8-2.9.9-.2.4-1.4-.4-1.4z"/><path class="gray" d="M131.1 113.4c-6.2-2-32.4-2.3-35.9 1.1-.4.3-1 2.7-.9 3.2.1.3 9.1-1 10.8-1.2 3.3-.4 6.6-.6 10-.8 5.2-.2 11.1.6 16.1-.7.7-.2.7-1.4-.1-1.6z"/><path class="gray" d="M147.4 156.8c-1.2 0-2.4.2-3.6.5-7 .3-14 1.1-21 1-5.4-.1-36.6.3-43.4.1-3.9-.1-7.9-.2-11.8-.9-1.4-.3-3.6-.5-4.8-1.4-2.3-1.7-1.8-4.7-1.9-7.2-.1-2.1-.2-4.2-.2-6.3.3-5 .2-10.1 0-15.2-.1-4.1-.2-8.3.1-12.4.3-3.6 1.3-7.1 1.8-10.6.5-.8 1-1.5 1.6-2.2.2-.2-.1-1.1-.3-1-.4.2-3.5 1.3-3.8 1.8-2.9 3.5-2.3 37.5-1.5 48.7.5 7.2.5 9.9 12.4 8.9 5.3.6 26.8.2 27.6 1.2 0 0-4.7 6.8-5.6 9.3 0 0-.6 2.1-.2 2.1 3.6 0 8.5-3.3 11.6-5 2.2-1.2 6.2-3.2 6-6.3 0-.3 11.1.2 16.2 0 20.8.7 21.3-3.9 21.6-4.1.1-.1-.1-1.1-.8-1z"/><path class="gray" d="M138 105.8c-12.5-1.1-72.9-1.2-73.3.3-2.8 7-2.1 25.9-1.9 30.1.3 4.3-.1 9.1 1.3 13.2.2.5 1.8 3.5 2.7-.1 1.2-8.9.5-18 1.1-27 .1-1.6.1-3.5.2-5.4 1.4-2.6 3.2-4.9 5.5-7.1 3.4-.2 6.8-.8 10.1-.9 6.1-.3 12.3-.4 18.4-.4 11.8-.1 24.5 1 36.1-1.8.6-.1.4-.9-.2-.9z"/><path class="gray" d="M120.1 137.3c-1.1-1.8-2.6-1.6-4.1-1.5-1.7.1-3.4.1-5.1.3-2.6.3-2.7 5.5 0 5.7 1.7.1 3.4.1 5.1.1 1.5 0 3.1.2 4.1-1.6.6-1 .6-2 0-3z"/><path class="dark" d="M136.1 120.9l-.1-3.4c-.1-1.1-.2-2.5-1-3.7-.4-.6-1-1.1-1.6-1.5-.6-.4-1.2-.6-1.8-.7-1.2-.3-2.4-.4-3.6-.4-4.5 0-8.9.1-13.3.2l-13.3.2c-1.1 0-2.2 0-3.4.2-.6.1-1.3.2-1.9.5-.6.3-1.3.7-1.7 1.3-1 1.1-1.3 2.5-1.4 3.7v1l-16.9.4c-1 .1-2.3.1-3.5.9-.6.4-1.1.9-1.4 1.6-.3.6-.5 1.2-.6 1.8-.2 1.2 0 2.3 0 3.3.1 1 .1 2 .2 3 .1 2 .1 4.1.1 6.1 0 4.1-.1 8.2-.3 12.3 0 .6 2.2.6 2.2.1.1-4.1.3-8.2.3-12.4 0-2.1 0-4.1-.1-6.2 0-1-.1-2.1-.2-3.1v-.4c6.9-.2 13.7-.3 20.6-.5.3 7.4 0 14.7-.2 22.1-.1 1.2 2.2 1.3 2.2.1.3-8.8.6-17.7 0-26.7 0-.3-.1-.6-.1-.9l38.4-1 .1 2.2c.2 8.8.2 17.7-.1 26.5.1.9 2.3 1.1 2.4.1.2-9 .2-17.8 0-26.7zM96 115c.9-1.2 3.2-1.2 5.4-1.2l13.3-.2c4.4-.1 8.9-.2 13.2-.2 1.1 0 2.1.1 3 .3.9.2 1.7.6 2.1 1.3.3.4.4.9.5 1.5l-38.3 1v-.1c.1-1 .3-1.9.8-2.4zm-23.2 8.5v-.2c.1-.9.4-1.5.9-1.8.5-.4 1.4-.5 2.4-.5l17-.4v.2c0 .7.1 1.4.1 2.1-6.8.3-13.6.4-20.4.6z"/><path class="dark" d="M124.7 128.8l-10.2.3c-3.4.1-6.8.2-10.1 0-.2 0-.4 2.2-.1 2.2 3.5.2 6.9.1 10.3 0l10.2-.3c.2 0 .1-2.2-.1-2.2z"/><path class="dark" d="M122.6 132.3c-5.3.3-10.7 0-16.2.4-.2 0 0 2.3.2 2.2 5.3-.4 10.7-.1 16.2-.4.1 0-.1-2.3-.2-2.2z"/><path class="dark" d="M117.7 137.7c-1.9.3-4.2-.1-6.7.4-.1 0 .4 2.2.4 2.2 1.9-.4 4.1 0 6.6-.4.1.1-.3-2.2-.3-2.2z"/><path class="dark" d="M102.2 121.1c-1.4.2-2.8.2-4.3.2-.1 0-.1 2.3 0 2.2 1.5 0 3.1 0 4.6-.2v-.3c0-.2-.1-.5-.1-.8s-.1-.6-.1-.8c0-.1-.1-.3-.1-.3z"/><path class="dark" d="M128.6 121.2h-2.8v2.2h2.9v-.3-.8-.8c-.1-.2-.1-.3-.1-.3z"/><path class="dark" d="M132.3 121.2h-2.8v2.2h2.9v-.3-.8-.8c-.1-.2-.1-.3-.1-.3z"/><path class="dark" d="M124.9 121.2h-2.8v2.2h2.9v-.3-.8-.8c-.1-.2-.1-.3-.1-.3z"/><path class="dark" d="M145.2 137.7v-22.4c-.1-1.8-.3-3.6-.6-5.4-.2-.9-.4-1.8-.7-2.7-.2-.5-.4-.9-.7-1.4-.2-.2-.4-.5-.6-.7-.3-.2-.6-.4-.8-.5-1-.5-2.1-.6-3-.6h-70c-.8 0-1.7 0-2.5.2-.4.1-.9.3-1.3.5-.5.3-1 .7-1.2 1.1-.6.8-.8 1.7-1.1 2.5-.2.8-.4 1.6-.5 2.4l-.3 2.4c-.1.8-.1 1.6-.1 2.4v4.6c0 3 .1 6 .2 8.9l-.2 15.5V148.8c.1.8.3 1.7.8 2.5s1.3 1.3 2 1.7c1.5.7 3 .9 4.4 1 1.5.1 2.8.1 4.2.1 11 .1 43.3-.1 48.5-.1l13.2-.1 2.2-.1c.8 0 1.5-.1 2.3-.2.8-.1 1.6-.3 2.4-.6.8-.3 1.6-.7 2.3-1.5.7-.7 1-1.7 1.1-2.6.1-.9.1-1.6.1-2.4l-.1-8.8zm-2.7 12.2c-.6.7-1.9 1.1-3.3 1.3-1.4.2-2.8.2-4.3.2l-4.4.1h-8.8c-5.9 0-38.3.3-48.6.2-1.4 0-2.8 0-4-.1-1.3-.1-2.6-.3-3.6-.8s-1.4-1.1-1.5-2.3v-4s-.1-21.9-.1-24.5v-4.6c0-.8 0-1.5.1-2.3 0-.7.1-1.5.2-2.2.2-1.4.5-3 1.2-3.9l.4-.4c.2-.1.5-.2.8-.3.6-.1 1.3-.2 2-.2h9.2l58.3.1c1.8 0 3.5-.1 4.7.4.2.1.2.1.3.2l.3.3c.2.3.3.6.5.9.3.7.5 1.5.6 2.3.3 1.6.5 3.4.5 5 .1 1.5.1 31.2.1 31.2 0 1.5 0 2.8-.6 3.4z"/><path class="dark" d="M149.9 140.5l-.2-20.4c.1-4 .2-8-.1-12.2-.1-1-.2-2.1-.5-3.2s-.8-2.2-1.6-3.1c-.9-1-2.2-1.5-3.3-1.7-1.2-.2-2.2-.1-3.2-.1l-24.3.2h-.1c-.1-.1-.2-.2-.4-.1l-42.7-.2h-8c-.9 0-1.9 0-2.9.2s-2.1.7-2.9 1.6c-.8.8-1.2 1.8-1.6 2.7-.6 1.9-.7 3.8-.7 5.6-.2 7.2.2 39 .2 39v4.8c0 .8 0 1.6.1 2.5.1.9.3 1.8.8 2.7.5.9 1.3 1.6 2.1 2.1s1.7.8 2.6.9c1.7.4 3.4.4 5 .4 6.4.1 12.8.1 19.3.1 3.1 0 6.3 0 9.4-.1-.6 1.4-1.6 2.8-2.6 4.2-1.4 1.7-3 3.7-3.7 6.1 0 .2 2.2.8 2.2.7.5-1.9 1.9-3.6 3.3-5.4 1.3-1.6 2.6-3.4 3.3-5.6h8.7c.7 2.1 2 4 3.3 5.7 1.4 1.8 2.8 3.4 3.3 5.4 0 0 2.2-.6 2.2-.7-.7-2.5-2.3-4.4-3.7-6.1-1.1-1.3-2.1-2.7-2.7-4.2h14.8l10.4-.1c1.7 0 3.5 0 5.2-.1 1.8-.1 3.6-.2 5.5-1 .9-.4 1.8-1.1 2.5-2 .6-.9.9-2 1-2.9.1-1 .1-1.9.1-2.7v-2.6l-.1-10.4zm-2.1 13c0 .9 0 1.7-.1 2.5-.1 1.5-.8 2.5-2.2 3.1-1.3.6-3 .8-4.7.8-1.7.1-3.4.1-5.2.1l-10.4.1H87.3c-6.4 0-12.8.1-19.2-.1-1.6 0-3.1-.1-4.6-.4-1.4-.3-2.7-.9-3.2-1.9-.6-1-.6-2.5-.5-4.1v-4.8s-.1-32.4 0-38.9c.1-1.7.1-3.5.6-5 .2-.7.6-1.4 1-1.9.5-.5 1-.8 1.7-.9.7-.2 1.5-.2 2.4-.2h8l42.7.2c.1 0 .2 0 .3-.1.1.1.1.2.2.2l24.3-.2c2 0 3.9 0 4.9 1.1 1 1.1 1.4 3.1 1.5 5 .3 3.8.2 7.7.1 11.6v.4l.2 20.4.1 10.4v2.6z"/><path class="dark" d="M105.3 155.6c-.4-.3-.9-.6-1.6-.5-.8.1-1.4.7-1.5 1.4-.1.6 0 1.1.2 1.5.2.4.8.9 1.6 1 0 0 1.3 0 1.5-.8.1-.3.3-.5.4-1 .1-.8-.3-1.3-.6-1.6z"/><path class="dark" d="M83.1 128.7h-4.9c-.1 0-.1 1.5 0 1.5h4.9v-1.5z"/><path class="dark" d="M87.9 128.7h-3.5v1.5h3.5v-1.5z"/><path class="dark" d="M76.4 128.7h-1.3v1.5h1.3v-1.5z"/><path class="dark" d="M76.4 131.7h-1.3v1.5h1.3v-1.5z"/><path class="dark" d="M81.2 131.7h-3v1.5h3v-1.5z"/><path class="dark" d="M86 131.7h-3.5v1.5H86v-1.5z"/><path class="dark" d="M76.4 134.7h-1.3v1.5h1.3v-1.5z"/><path class="dark" d="M80.6 134.7h-2.5v1.5h2.5v-1.5z"/><path class="dark" d="M83.1 134.7h-1.6v1.5h1.6v-1.5z"/><path class="dark" d="M76.4 137.7h-1.3v1.5h1.3v-1.5z"/><path class="dark" d="M82.4 137.7h-4.3v1.5h4.3c.1 0 .1-1.5 0-1.5z"/><path class="dark" d="M86.8 137.7h-3.5v1.5h3.5v-1.5z"/><path class="dark" d="M76.4 140.7h-1.3v1.5h1.3v-1.5z"/><path class="dark" d="M81.4 140.7h-3.3v1.5h3.3c.1 0 .1-1.5 0-1.5z"/><path class="dark" d="M87.8 140.7h-5.3c-.1 0-.1 1.5 0 1.5h5.3v-1.5z"/><path class="dark" d="M83.1 143.7h-4.9c-.1 0-.1 1.5 0 1.5h4.9v-1.5z"/><path class="dark" d="M76.4 143.7h-1.3v1.5h1.3v-1.5z"/><path class="dark" d="M87.8 143.7h-3.5v1.5h3.5v-1.5z"/></g><g class="desk"><path class="gray" d="M171.1 176.8c-3.7-.4-125-.4-128.8 1.2-2.4 1-2.5 5.3.7 5 1.5-.1 15.3-.1 20.8-.3-.2 1.8-.1 3.8-.2 5.5-.1 3.8-.2 7.7.2 11.5-.1 2.5 3.5 2.4 3.8 0 .5-3.8 1.3-15.3 1.2-17.2 1.8 0 3.5-.1 5.3-.1 10.6-.1 52.8-1.1 63.4-1.5 1.1 0 2.3-.1 3.4-.1-.3 2.3-.1 4.7-.2 7 0 3.3-.1 6.6 0 9.9 0 2.8 4.1 2.7 4.3 0 .5-5.3.3-10.7 1.2-16.7 3.3.1 24.1.1 24.6-.7.8-.8 1.3-2.9.3-3.5z"/><path class="dark" d="M171 175.3l-64.7 1.1-64.7.4c-1.5 0-1.5 2.3 0 2.2l64.7-.4 64.7-1.1c1.2 0 1.2-2.2 0-2.2z"/><path class="dark" d="M69.5 200.4l-.3-21.5c0-.2-2.3-.2-2.2 0l.3 21.5c0 .2 2.2.2 2.2 0z"/><path class="dark" d="M146 199.1c-.2-7 .2-14 .2-21.1 0-.2-2.3-.2-2.2 0 0 7-.5 14-.2 21.1 0 .3 2.2.2 2.2 0z"/></g><g class="swirls"><path class="gray" d="M86.3 81.1c-.2-.4-2.7-4.7-2.7-4.7l-.8-1.5s-.3-.8-.5-.6l-4.6 3.6-2 2.6s-.1.1 0 .1l.1.1s5.3 6 5.4 5.9c0 0 4.9-3.5 5.1-4 .1-.2.2-.5.2-.8s-.1-.5-.2-.7zm-1.4.7c0 .1-3.8 2.8-3.8 2.8l-3.6-4.2s1.9-2 2.3-2.4c.4-.4 2.1-1.7 2.1-1.7s3 5.4 3 5.5z"/><path class="gray" d="M171.2 119.5l2.4-4.9c0-.1-1.3-.7-1.3-.7l-2.4 4.9c-.1.1 1.2.8 1.3.7z"/><path class="gray" d="M174.9 125.8c1.3-4.2 3.4-8.2 6.2-11.6.1-.1-1.1-1.1-1.2-.9-2.9 3.6-5.1 7.7-6.4 12.1-.1.1 1.4.6 1.4.4z"/><path class="gray" d="M182.4 124.2c0-1.4 1-2.8 2.3-3.2 0 0-.4-1.5-.4-1.4-2 .6-3.4 2.5-3.4 4.6h1.5z"/><path class="gray" d="M28.9 110.8c-2.2-.2-4.4-.2-6.6-.1-.1-1.9-.1-3.9.1-5.8 0-.1-1.5-.3-1.5-.2-.3 2-.3 4.1-.2 6.1-1.8.1-3.7.4-5.5.7-.2 0 .1 1.5.3 1.5 1.8-.3 3.5-.5 5.3-.7.2 2.1.6 4.1 1.2 6.2.1.2 1.5-.3 1.5-.4-.5-1.9-.9-3.9-1.1-5.9 2.1-.1 4.3-.1 6.4.1.1 0 .2-1.5.1-1.5z"/><path class="gray" d="M153.3 34.2c-1.3-.5-2.6-1.2-3.8-2 .9-1.2 1.8-2.3 2.9-3.3.1-.2-1-1.2-1.1-1.1-1.1 1.1-2 2.4-3 3.6-1.1-.8-2.1-1.7-3-2.6-.1-.1-1.2 1-1.1 1.1 1 1 2.1 1.9 3.3 2.8-.7 1.1-1.4 2.2-2.1 3.4-.1.1 1.3.8 1.3.7.6-1.1 1.3-2.2 2-3.3 1.3.8 2.6 1.5 4 2.1.1 0 .7-1.4.6-1.4z"/><path class="gray" d="M67.5 37c-.6-1.2-1.7-1.9-2.9-2.3-1.2-.4-2.5-.4-3.7.2-1.2.6-2.1 1.7-2.3 3-.2 1.3 0 2.5.6 3.6s1.6 2 2.9 2.3c.1 0 .1 0 .2-.1.9.2 1.9 0 2.6-.4 1.1-.5 2.1-1.4 2.7-2.5.3-.6.4-1.2.4-1.9s-.2-1.3-.5-1.9zm-1.4 3.1c-.7 1.6-2.9 2.6-4.4 1.9-1.2-.7-2-2.5-1.7-3.9.2-.9.7-1.6 1.5-1.9.8-.4 1.7-.4 2.6-.1.9.3 1.6.9 2 1.6.4.7.4 1.6 0 2.4z"/><path class="gray" d="M124.8 88.3c-1.8-1.6-3.7-3-5.7-4.3-.1-.1-.9 1.2-.8 1.3 1.9 1.3 3.8 2.7 5.6 4.2 0 0 .9-1.1.9-1.2z"/></g><g class="settings"><path class="gray" d="M111.4 60.4c-1.7-1.4-3.9-1.1-5.8-.3-.9.4-1.6.9-2.3 1.5-.7.5-1.2.7-1.7.8-1-1.8-1.9-5.9-2.9-7.2S96.4 53 95 52.3c-2.2-1.1-3-.9-1.4-3.4 1-1.5 2.1-2.4 2.5-4.2.5-2.4-.6-3.2 1.2-5.2 1.9-2.2 2.3-.7 4.8-.9 3.3-.4 6.1-3.1 7.3-6 .4-.9-.6-1.9-1.4-1.1-1.3 1.3-3 3.4-4.9 3.7-3.4.6-3.7-1.7-6.2-1.6-1.4.1-2.5.4-3.4 1.6-.9 1.1-1 2.4-1 3.8l.6 3.9c-.8 1.4-1.7 2.8-2.5 4.3-.6.8-1.4 1.1-1.9 2-.6 1.2-1.2 4.7.6 5 2.7 1.8 5-.4 6.9 3.1.2 3.8 1.6 10.5 6.4 7.8.2-.1 2.7-2.1 3.9-2.6 1.5-.7 2.6-1.4 4.6-.7.5 0 .9-1 .3-1.4z"/><path class="gray" d="M100.7 44.3c-2 2.2-1 5.3.6 7.4.7.9 7 6.4 9.1-2.9-.2-4.6-6.1-8.5-9.7-4.5z"/><path class="gray" d="M129.7 42.5c-.4-1.6-1.3-3-2.6-4-2.1-1.8-4.1-1-6.3-2.1-4.8-2.3-1.2-4.1-2.6-7.4-.7-1.6-2.4-2.8-3.9-3.5-2.1-1-4-1.1-6.1-.2-2.7 1.1-5.9 5.8-9.2 4.8-2-2.7-6.9-2.8-9.4-.5-2.7 2.5-2.8 5.9-2.3 9.3-.3 2.3-.8 4.5-2.2 6.7l-.6.9c-3 3-5 6.9-2.1 11.1 2.2 3.2 6.5 2.6 8.6 6.2.2.4.4.8.7 1.2 0 2.5.8 5 2.9 6.7 3.7 3.1 6.9 1.7 10.2-.9 4.8-3.7 6.6-2 11.5-1.3 1.8.2 3.3 0 4.8-1.2 5.4-4.4-.5-11.9 4.2-16.3 2.8-2.8 5.7-4.8 4.4-9.5zm-8.5 7.1c-2-.2-3.1.9-3.5 2.5-.4 1.7-.4 5.9 1.3 6.5-2 5.7-8.5 2.8-9.6 2.7-3.5-.2-4.8 3.3-5.8 3.8-3.5 1.6-5.6 2-7.1-1.8 0-.1 1.3-4.1.1-5.5 0-2.5-4.4-2-5-2.3-1.7.1-3.5-.2-3.8-2.2-.7-1.8-1.3-4.6 2-6.2 1.1-1 2.3-1.4 2.8-3 .2-.7-.2-2.2-.5-3.7-1.1-4.7 3.4-6.5 4.2-6 1 .6 6.9 3.1 8-.1 1.2-1 2.7-3.9 4.5-3.8 1.6 1.3 3.2 2.6 4.7 4-.1.7.3 4.4 1.6 5.4 2 1.5 5.5.2 7.3 1.9 1.8 3.6 1.1 5.6-1.2 7.8z"/><path class="dark" d="M124 44.6c-.2-1.7-1.5-3.2-3-3.8-.8-.3-1.7-.4-2.4-.3-.7 0-1.2.1-1.6 0-.9-.2-1.7-.9-2.1-1.8-.2-.5-.4-1-.4-1.5 0-.3.1-1.3.1-1.6.1-.6.2-1.4 0-2.3-.1-.5-.3-.9-.7-1.3-.3-.4-.7-.7-1.1-.9-.7-.4-3.4-1.2-4.3-1.1-.9 0-1.9.5-2.5 1.2-.6.7-.8 1.4-1.1 1.9-.4.9-1.2 1.5-2.2 1.9-1 .3-2.1.3-2.9-.2-.2-.1-1-.7-1.2-1-.3-.3-.6-.6-1-.8-.5-.2-1-.3-1.5-.3-1.9.1-3.7 1.8-4.2 2.3s-1 1.1-1.3 1.9c-.2.4-.3.8-.3 1.3s.1 1 .3 1.4c.4.9 1 1.4 1.4 1.8.2.2.4.6.3.8 0 .2-.1.5-.2.8l-.3 1-.6 1.9c-1 .5-2.2.8-3.3 1.7-.6.5-1.3 1.2-1.5 2.2-.2.9-.1 1.6 0 2.3.1.7.2 1.5.6 2.3.4.8 1.3 1.5 2.2 1.7.9.2 1.6.1 2.3.1.6 0 1.2-.1 1.7 0 .9.2 1.8.8 2.4 1.6.3.4.5.9.5 1.3.1.4 0 1-.1 1.6-.1.6-.2 1.3-.2 2.1s.2 1.8.8 2.5c.6.8 1.4 1.2 2.1 1.4.7.2 1.5.4 2.3.3.9 0 1.8-.4 2.4-.9.6-.5 1.1-1 1.5-1.6.8-1 1.5-1.7 2.5-2.1 1-.4 2.1-.5 2.9-.1.4.2.9.5 1.6.9.7.4 1.5.6 2.3.7 1.6.1 3.3-.6 4.4-1.9 1.1-1.3 1.5-3 1.1-4.6-.2-.8-.6-1.5-.8-2-.3-.5-.4-.9-.5-1.4-.1-1 .2-2 .8-2.8.5-.8 1.7-1.1 3-2.1s2-2.8 1.8-4.5zm-3.2 2.6c-.4.3-.9.6-1.5.9-.6.3-1.3.8-1.8 1.5-1 1.2-1.5 2.9-1.3 4.4.1.8.4 1.6.7 2.2.3.6.6 1.1.7 1.5.2.9 0 2-.7 2.7-.6.7-1.6 1.1-2.5 1.1-.5 0-.9-.1-1.4-.4-.5-.3-1-.7-1.8-1-1.5-.6-3.2-.5-4.6.1-.7.3-1.4.7-2 1.2-.6.5-1 1.1-1.4 1.5-.4.5-.8.9-1.2 1.2-.4.3-.7.4-1.2.5-.9.1-2.2-.4-2.6-.9-.2-.3-.3-.6-.3-1.1s.1-1.1.2-1.8.2-1.4.1-2.3c-.1-.8-.4-1.6-.9-2.2-.9-1.3-2.3-2.3-3.9-2.6-.8-.1-1.6-.1-2.2 0-.6 0-1.2.1-1.6 0-.4-.1-.6-.3-.8-.6-.2-.3-.3-.9-.3-1.4 0-.6-.1-1.2 0-1.6.1-.3.3-.6.7-.9.8-.6 2.1-1 3.3-1.7.2-.1.7-.7.8-1l.6-1.8.3-.9c.1-.3.2-.6.3-1.1.1-.5 0-1.1-.2-1.6s-.5-.8-.7-1.1c-.5-.5-.9-.9-1-1.2-.1-.3-.1-.6 0-1 .2-.4.5-.8.9-1.2.7-.8 1.9-1.6 2.5-1.7.3 0 .4 0 .8.4.2.2 1.5 1.2 1.8 1.4 1.5.7 3.1.8 4.6.3.7-.2 1.5-.6 2.1-1.1.6-.5 1.2-1.2 1.5-1.9.3-.6.5-1.2.8-1.5.2-.3.5-.4.9-.4s.9.1 1.5.2c.5.2 1.2.4 1.6.6.4.2.5.4.6.7.1.3 0 .9 0 1.5-.7 2.8.8 6.6 4.2 7.4.8.2 1.7.1 2.3.1.6 0 1 0 1.4.2.8.3 1.5 1.1 1.6 2 .1.9-.2 1.9-.9 2.4z"/><path class="dark" d="M110 43.4c-1.3-1.3-3.1-2-4.9-2.1-.9 0-1.9.1-2.7.5-.9.4-1.6.9-2.3 1.6-1.3 1.3-2.1 3.1-2 5 0 1.9.9 3.6 2.1 4.9.6.6 1.3 1.2 2.1 1.6.8.4 1.7.8 2.7.8 1.9.1 7-1.6 7.1-7.3 0-1.8-.7-3.7-2.1-5zm-4.8 10.1c-1.1-.1-2.4-.8-3.3-1.8-.9-1-1.5-2.2-1.5-3.4s.5-2.5 1.4-3.4c.9-.9 2.1-1.4 3.3-1.4 1.3 0 2.5.6 3.4 1.5.9.9 1.4 2.1 1.4 3.4 0 1.3-1 3.3-1.2 3.6s-2.3 1.6-3.5 1.5z"/></g><g class="code"><path class="gray" d="M41.5 78.1c-1.5-1.3-3.8-1.9-5.4-3.3-1.1-.9-2-1.9-2.9-2.9 4.6-2.8 11.6-7.4 8.8-12.4-.8-1.4-2.1-2.1-3.6-2.1-4-2.4-12.3 5.3-15 7.6-2.1 2-3.3 3.5-2.1 6.3 1.4 3.2 4.6 6.1 7.2 8.2 3.3 2.7 10 9.5 13.6 3.8 1.3-1.7 1-3.8-.6-5.2z"/><path class="gray" d="M65.6 66.6c-3.4-3.7-9-7.1-13.3-9.6-1.1-.6-2.4-.4-3.2.3-.5 0-1 .2-1.4.7-1.2 1.1-1.9 2-2.1 3.4-.7 1.3-.9 2.7.5 4.2 1.3 1.5 3.9 2.2 5.6 3.1.8.4 1.9 1.6 2.9 2-1.7.7-4.6 3.5-5.6 4.3-1.2 1-2.5 2-3.2 3.5-1 2.3-.4 5.2 1.9 6.5 3 1.7 6.2-1 8.5-2.7 3.5-2.5 7.4-5.5 9.8-9.1 1.6-2.3 1.5-4.6-.4-6.6zm-14.5-3.7c.1-.1.1-.2.1-.3.5.3 1 .7 1.6 1.2-.6-.2-1.2-.5-1.7-.9z"/><path class="dark" d="M39.6 80.1c-2.4-1.3-4.7-2.8-6.8-4.5-1.1-.8-2.1-1.7-3.1-2.7-.5-.5-1-.9-1.4-1.4l-.7-.7-.5-.6 12.1-8.3c.3-.2-1-2.1-1.3-1.9L31 64.8l-3.4 2.4-1.7 1.2c-.2.2-.6.4-.8.6-.2.2-.4.5-.5.8-.2.6.1 1.2.6 1.7l.8 1 .7.8 1.5 1.5c1 1 2.1 1.9 3.2 2.8 2.2 1.8 4.6 3.4 7.1 4.7.3 0 1.3-2 1.1-2.2z"/><path class="dark" d="M49.4 82.1c2.5-1.3 4.9-2.9 7.1-4.7 1.1-.9 2.2-1.8 3.2-2.8l1.5-1.5.7-.8.8-1c.5-.5.7-1.1.6-1.7-.1-.3-.2-.5-.5-.8-.2-.2-.6-.4-.8-.6L60.3 67l-3.4-2.4-6.9-4.7c-.3-.2-1.6 1.6-1.3 1.9l12.1 8.3-.5.6-.7.7c-.5.5-.9 1-1.4 1.4-1 .9-2 1.8-3.1 2.7-2.1 1.7-4.4 3.2-6.8 4.5-.2.3.8 2.3 1.1 2.1z"/></g><g class="plugins"><path class="gray" d="M180 58.7c-.8-.8-2-1-3-.5-.5 0-1.1.1-1.6.3-.2.1-1.7 1.2-1.8 1.2-1.3-.3-.3-1.5-.1-2 .4-1.4.7-2.5-.1-3.7-.2-.5-.5-1-.9-1.4-1-.9-2.4-.9-3.4 0-.6.1-3.1 1-3.8 1.1-.9-.6-1.8-.8-2.7-.7-.7-.2-3.5 2.1-4.1 2.9-1.9 1.8-3.6 4.6-4.7 6.2-1.8 2.7-2.9 5-2.5 8.3.2 1.2.6 2.3.9 3.4.4.9.9 3.5 1 3.9.3 4.1-4.6-3.5-7.4-3.9-2-.3-3.8.4-4.7 2.3-1.2 2.7 11.4 22.1 21.9 12.7.9-1.4 1.3-3.2 1-4.9-.1-.6-.2-1.1-.4-1.7.2 0 2.4-.1 3.2-.5 5-.5 10.8-5.4 12.4-9.4.6-1.7.6-3.3 0-4.7.1-.9-.3-1.9-.1-2.8s.9-1.5 1.1-2.4c.1-.3.1-.7.1-1 .7-.8.4-2-.3-2.7zm-11 15.9c-7.9 4-8.6.8-9.2.4 0-.1-.1-7.2 2.6-9.6 2.9-2.7 7.7 3.1 9.8 5 .9.8-1.5 2.7-3.2 4.2z"/><path class="dark" d="M174.8 68.7l-.7-.7-1-.9c1-1.1 2.1-2.2 3.2-3.4l-1.7-1.5c-.9 1.1-2 2.1-3.1 3.3L167 61c1-1.1 2.1-2.2 3.2-3.3 0-.1-1.7-1.6-1.7-1.5-.9 1.1-2 2.1-3.1 3.3l-2.6-2.6c-.2-.2-1 .3-1.1.4-1.9 1.6-3.5 3.6-4.7 5.7-.6 1.1-1.1 2.2-1.6 3.4-.2.6-.4 1.1-.6 1.8-.1.3-.1.7-.1 1.1v1c.1 1.3.5 2.6 1.2 3.8.2.4.5.7.8 1.1-.3.3-.6.6-.8 1-.5.8-.6 2-.2 2.8.4.9 1 1.4 1.5 1.8s.9.8 1.2 1.2c.3.4.3.6.3 1s-.2.9-.4 1.3c-.5.9-1.3 1.8-1.9 1.9-.6.2-1.5-.4-2.4-1.2-.9-.8-1.9-1.7-2.8-2.5-1.8-1.7-3.6-3.5-5.3-5.3-.1-.2-1.8 1.4-1.6 1.6 1.7 1.9 3.5 3.7 5.4 5.4.9.9 1.9 1.7 2.8 2.6.5.4 1 .9 1.7 1.3s1.6.7 2.6.5c.9-.2 1.7-.7 2.2-1.3.5-.6.9-1.2 1.3-1.8.3-.7.6-1.4.6-2.3.1-.8-.3-1.8-.8-2.5-.5-.6-1-1.1-1.5-1.5-.4-.4-.8-.8-.9-1.1s-.1-.5.1-.8c.1-.2.3-.4.5-.6l.3.3c1.2.9 2.6 1.2 4 1.2 1.3 0 2.6-.2 3.9-.7 2.4-.9 4.5-2.4 6.2-4.1.4-.4.9-.8 1.3-1.2l.7-.7c.4-.4.8-.8.8-1.4 0-.5-.2-1-.7-1.4zm-2.3 1.9l-1.2 1.2c-1.7 1.6-3.5 2.9-5.5 3.6-1 .4-2 .6-3.1.5-1 0-2-.3-2.7-.8-.8-.6-1.6-1.4-2.1-2.2-.5-.8-.8-1.9-.9-2.9v-.7c0-.2 0-.4.1-.7.1-.5.3-1 .5-1.5.4-1 .9-2.1 1.4-3 .9-1.6 2.1-3.1 3.4-4.4l8.8 8.7 1.3 1.2.5.5-.5.5z"/></g><g class="eyes"><circle class="dark" cx="235.1" cy="92" r="1.3"/><circle class="dark" cx="251.1" cy="92" r="1.3"/></g></svg>