<svg id="svg-home-sites" xmlns="http://www.w3.org/2000/svg" viewBox="0 0 320 240" style="enable-background:new 0 0 320 240" aria-labelledby="title" role="group"><style>@keyframes bounceUp{0%{transform: translateY(0px) scale(1.0)}10%{transform: translateY(1px) scale(0.99)}30%{transform: translateY(-5px) scale(1.01)}50%{transform: translateY(1px) scale(0.99)}60%{transform: translateY(0px) scale(1.0)}100%{transform: translateY(0px) scale(1.0)}}.animate-bounceUp{animation: bounceUp 2s ease-in-out infinite;visibility: visible;-webkit-backface-visibility: hidden}#svg-home-sites *{-webkit-transition: all 0.3s ease-in-out;-moz-transition: all 0.3s ease-in-out;-ms-transition: all 0.3s ease-in-out;-o-transition: all 0.3s ease-in-out;transition: all 0.3s ease-in-out}#svg-home-sites:hover .seo,#svg-home-sites:hover .security,#svg-home-sites:hover .updates{animation: bounceUp 3s 0s ease infinite;transform-origin: right bottom}#svg-home-sites:hover .security{animation-delay: 0.45s}#svg-home-sites:hover .updates{animation-delay: 0.9s}#svg-home-sites:hover .eyes{transform: translate(2px, -1px) }#svg-home-sites .coffee path:nth-of-type(3){opacity: 0;-webkit-transition: all 1s ease-in-out;-moz-transition: all 1s ease-in-out;-ms-transition: all 1s ease-in-out;-o-transition: all 1s ease-in-out;transition: all 1s ease-in-out}#svg-home-sites:hover .coffee path:nth-of-type(3){opacity: 1;transform: translateY(-2px) }#svg-home-sites .gray{fill:#CFD8DC}#svg-home-sites .dark{fill:#273339}#svg-home-sites .highlight{fill:#CFD8DC}#svg-home-sites:hover .swirls{opacity: 1}#svg-home-sites:hover .highlight{fill:#88cfff}#svg-home-sites .swirls { opacity: 0; } #svg-home-sites:hover .swirls { opacity: 1; } .sr-only { font-size: 0; }</style><title id="title">StudioPress Sites illustration</title><text id="nvda-title" class="sr-only">StudioPress Sites illustration</text><g class="base"><path class="highlight" d="M305.1 211.5c-9.9-.5-267.4 1.1-290.2 1.1-1.8.3-1.8 5 0 5.4 12.5 2.4 25.4 1.3 37.9 1.5 12.9.2 25.9.3 38.8.4 12.6.1 25.3.4 37.9.1 6.3-.1 12.6-.4 18.9-.8 2.4-.2 19.5.4 20.8.3 9.9.7 20.1-.8 29.8-1.3 5.7-.3 11.5-.9 17.2-.5 6.2.4 49.1 1.5 53.6 1.5 3.5 0 27.5-.1 35.7-1.9 2.6-.6 1.9-5.7-.4-5.8z"/><path class="dark" d="M304.5 210.9c-24 0-48-.4-72-.6-12-.1-24-.3-36-.3-6 0-12-.1-18 0-6 0-12 .1-18 .3-24 .6-48 1.8-72 1.7s-48-.9-72.1-1c-3.3 0-3.3 2.3 0 2.2 24 .1 48 .9 72.1 1s48.1-1.1 72.1-1.7l18-.3h18l36 .3c24 .3 48 .6 72.1.6 2.4 0 2.4-2.2-.2-2.2z"/></g><g class="laptop"><path class="gray" d="M259 136.9c-7.7 2.6-36.5 58.7-39.6 61.5-8.9.1-71 .2-71.3 0-1-.7-5.3 4.8-4.1 8.2.1.2.3.2.5.1 1.3-1.9 2-3.8 4.4-4.5 2-.6 4.3-.7 6.4-.9 4.1-.3 20.4.5 24 .5l14.4-.3c8.6-.2 17.5.2 26-1.1.3 0 .5-.2.6-.4 3.4-1.6 5.5-7.1 7.3-10.1 1.2-1.9 6.8-10.6 8-13 .8-1.5 14.9-25.5 17-28.8 2.1-3.5 4-7.3 7.6-9.4 1-.7-.1-2.5-1.2-1.8z"/><path class="dark" d="M222.5 204.6c5.2-8.1 10.3-16.3 15.3-24.6s9.8-16.7 14.5-25.1l7-12.7 1.7-3.2.4-.8c.1-.3.2-.5.2-.8l-.5-.7-.6-.6c-.3-.1-.5-.3-.8-.4-.3-.1-.5-.1-.7-.1-.5 0-.9.1-1.3.2-1.5.5-2.5 1.4-3.4 2.4-.4.5-.9 1.1-1.2 1.6l-.9 1.6-14.8 24.8-14.8 24.8-1.8 3.1c-.6 1-1.2 1.9-2 2.3-.7.4-1.7.4-2.9.3h-18.1c-9.6-.1-19.3-.2-28.9-.1-4.8 0-9.7.1-14.5.3l-3.6.1c-1.3.1-2.6.2-3.9.7-.6.2-1.3.5-1.9.9-.7.5-1.2 1.1-1.5 1.8-.7 1.3-1 2.6-1.1 4 0 .8.2 1.4.6 1.8.3.3.7.4.9.2s.4-.4.5-.7.2-.7.2-1.2c0-1 .3-2.1.8-2.9.2-.4.5-.8.8-.9.4-.3.9-.5 1.4-.7 1-.3 2.1-.5 3.2-.5l3.6-.1c4.8-.2 9.6-.3 14.4-.3 9.6-.1 19.3.1 28.9.1h14.5c1.2 0 2.5-.1 3.6 0 .6 0 1.2.1 1.9 0s1.5-.2 2.2-.6c1.4-.8 2.1-2 2.8-3.1l1.9-3.1 14.8-24.8 14.8-24.8.9-1.6c.3-.5.6-.9.9-1.3.7-.8 1.6-1.5 2.4-1.7.4-.1.8 0 .7-.1l-1.7 3.2-7 12.7c-4.7 8.4-9.5 16.8-14.4 25-5 8.3-10.1 16.4-15.3 24.5-1.2 1.6.7 2.8 1.8 1.1z"/></g><g class="seo"><path class="gray" d="M165.2 92.6c-5.5 1.1-12.4 2.3-16.4-2.9-2-2.7-1.9-6-.3-8.8 1.2-2.1 3.1-3.2 4.4-5 .2-.3-.1-.6-.3-.6-3.4-.4-6.3 3.1-7.5 5.9-1.6 3.5-1.4 7.5 1 10.6 2.6 3.5 6.9 4.9 11.1 5.3 3.1.4 8.7-4.6 8-4.5z"/><path class="highlight" d="M184.1 101.5c-.1-.1-2.6-4.5-4.1-6.2-2.6-2.9-5-5.7-7-9-.2-4.8-2.4-9.9-5.5-13.1-1.8-1.9-6-4.6-9.6-5-3.2-.8-6.7-.6-10.2 1.2-6.1 3.1-9 10-8.8 16.6.1 3.2.9 8.3 3.6 10.6 1.3 2 4 3.2 6.4 3.8 2.2.8 4.7 1.1 7.1 1 1.5.2 2.9.4 4.3.9 2.8.9 11.6 7.5 13.9 8.3 2.7 1.9 4.6 1.4 6.8-.5.6-.4 1.1-.9 1.6-1.6 2-2.1 3.2-4.4 1.5-7zm-16.2-15.9c.7 3.6-6.6 18.2-21.2 7.2-2.7-2-5.1-14.6 5.5-18.2s15 7.4 15.7 11z"/><path class="dark" d="M168.9 82.7c0-.1-.1-.2-.2-.3-1.2-3.1-3.2-5.8-6-7.7-2.8-1.9-6.4-2.5-9.7-1.8-1.6.4-3.3 1.1-4.6 2.2-1.4 1.1-2.4 2.4-3.2 3.8-.4.7-.8 1.4-1.1 2.1-.3.7-.6 1.6-.8 2.4-.3 1.7-.2 3.4.2 5 .2.8.4 1.6.6 2.3.1.4.3.8.5 1.2.2.4.5.9.9 1.2.7.7 1.2 1.1 1.8 1.6.6.5 1.2 1 1.9 1.5 1.4.9 3.1 1.6 4.7 1.8 1.7.2 3.4.1 5-.3s3.1-1 4.6-1.8c.7-.4 1.4-.8 2.1-1.4.7-.6 1.3-1.4 1.7-2.1.9-1.5 1.3-3.1 1.6-4.8.2-1.6.3-3.3 0-4.9zm-2.2 4.6c-.2 1.4-.6 2.8-1.3 4-.3.6-.7 1.1-1.2 1.5s-1.1.8-1.7 1.2c-1.2.7-2.6 1.3-4 1.6-1.4.3-2.8.4-4.2.3-1.4-.2-2.6-.7-3.8-1.4-.6-.4-1.1-.8-1.7-1.3-.5-.5-1.2-1-1.6-1.5-1.4-1.9-1.3-3-1.5-3.7-.3-1.4-.4-2.8-.2-4.1s.9-2.6 1.6-3.9c.7-1.2 1.6-2.4 2.7-3.2 1-.9 2.3-1.4 3.7-1.7 2.7-.6 5.6-.1 8 1.5 2.3 1.5 4.1 3.9 5.1 6.6l.1.1c.2 1.3.2 2.7 0 4z"/><path class="dark" d="M168.7 94.9l6.7 6 3.4 3 .3.3v.1c-.4.5-.9 1.1-1.4 1.6-.1 0-.1 0-.3-.1-.3-.2-.9-.7-1.3-1.1l-2.8-2.6-5.6-5.2c-.3-.3-1.9 1.4-1.6 1.6l5.7 5.2 2.8 2.6c.5.4.9.8 1.6 1.3.4.2.9.5 1.5.5s1.3-.2 1.7-.7c.5-.6 1.1-1.1 1.6-1.8 0-.1.2-.2.3-.4.1-.2.2-.3.3-.5s.1-1 .1-1.1c-.1-.3-.3-.6-.6-.9-.1-.2-.5-.5-.5-.5l-3.4-3-6.7-6c-.5-.2-2.1 1.5-1.8 1.7z"/><path class="dark" d="M155.2 77.8c-2.3-.1-4.6 1-5.9 3-1.3 1.9-1.5 4.5-.5 6.6.1.2 2.1-.9 2-.9-.6-1.4-.5-3.1.4-4.4.8-1.3 2.4-2.1 3.9-2 0 0 .2-2.3.1-2.3z"/></g><g class="security"><path class="gray" d="M183 28.9c-.6 1.6-11.8 26.4 14.5 34.1-10.2-6.5-15.8-17.1-11.7-29 4.8-.4 9.2-2.5 11.6-6.8 0 0-3.1.1-14.4 1.7z"/><path class="highlight" d="M212.4 22.1c-.5-1-2-1.3-2.9-.7-4.2 2.6-6.4.2-10.6-1.2-.5-.2-.9 0-1.2.4-.3 0-.6.1-.9.3-4.8 2.4-7.5 4.2-12.6 1.4-.9-.5-1.9-.3-2.6.3-2.9 2.5-4.2 8.2-4.9 11.8-.2 1.3-.4 2.6-.5 4-2.2 15.3 9.5 35.8 25.7 30.6 8-2.6 13-9.9 15.3-17.6 2.9-10.2-.5-20.1-4.8-29.3zm-.3 26.9c-3 11.9-14.4 14.1-14.6 14-23.6-7-19.4-29.1-14.5-33.7 1.5-1.4 3.6 1.2 13.6-2.9.3-.1 10.4 2.6 12.9 2.5 2.4 6.7 4.4 12.8 2.6 20.1z"/><path class="dark" d="M213.6 37.8c-.8-3.8-2.3-7.2-4.1-10.5-.1-.3-.7-.1-1.2.3-1.7.6-3.6.6-5.5.1-1-.3-2-.7-3-1.2-.5-.2-1-.5-1.4-.8l-.7-.4c-.5-.3-1.1-.5-1.6-.3-.3.1-.5.2-.8.4l-.4.3-.7.5c-.4.3-.9.6-1.4.8-.9.5-1.9.9-2.9 1.1-1.8.4-3.8.4-5.4-.2-.5-.4-1.4-.8-1.6-.6-2 3.4-3.2 7.1-3.9 10.9-.3 1.9-.5 3.8-.4 5.8.1 2 .6 4 1.4 5.8s1.8 3.4 2.8 5c1.1 1.6 2.3 3.1 3.7 4.5 1.4 1.4 3 2.6 4.8 3.5 1.7.9 3.6 1.6 5.6 1.9.1 0 .1 0 .2-.1l.2.2c1.7-.6 3.5-1.3 5.2-2.2 1.7-.9 3.3-2.1 4.6-3.6 1.3-1.5 2.3-3 3.4-4.6 1-1.6 1.9-3.4 2.5-5.2 1.1-3.7 1.3-7.6.6-11.4zm-2.8 10.8c-.5 1.7-1.3 3.2-2.2 4.7-1 1.5-2 3-3.2 4.3-1.1 1.3-2.5 2.3-4 3.1-1.3.7-2.8 1.3-4.3 1.8-1.7-.2-3.2-.9-4.8-1.7-1.6-.8-3-1.8-4.2-3.1-1.3-1.2-2.4-2.7-3.4-4.1-1-1.5-1.9-3.1-2.7-4.7-.7-1.6-1.1-3.3-1.2-5-.1-1.8.1-3.6.4-5.3.5-2.9 1.4-5.8 2.8-8.5.9.3 1.8.4 2.6.4 1.2.1 2.5 0 3.7-.3 1.2-.3 2.4-.7 3.5-1.3.5-.3 1.1-.6 1.6-.9.3-.2.5-.3.7-.5l.3-.2.8.4c.5.3 1 .6 1.6.8 1.1.5 2.2 1 3.4 1.3 1.9.6 4 .7 6.1.1 1.3 2.7 2.4 5.5 3 8.4.7 3.4.5 7-.5 10.3z"/><path class="dark" d="M200.3 41.2c-.5-.9-1.2-1.6-2.1-2.1h-.1c-.7-.2-1.2-.2-1.7-.1s-1 .2-1.5.5c-.9.5-1.5 1.3-2 2.2-.2.5-.4.9-.4 1.5-.1.5 0 1.2.3 1.8.3.6.8 1 1.3 1.3l-.2 7.2s4.5.3 4.5.2l.2-7.1c1-.4 1.7-1.4 2-2.3.3-1 .2-2.2-.3-3.1z"/></g><g class="theme"><path class="gray" d="M223.6 143.3c-5.6 0-45 .1-45.9.2-.2-.3-.4-.5-.8-.6-.4-1.4 1.1-2.9 2.4-3.4 1.4-.4 3.1-.3 4.6-.4 2.3-.1 19.5-.4 23-.4 5.3.1 10.9.5 16.1-.6 1.2-.3.8-1.9-.3-2-5.5-.3-46.1.5-47.6.9-1.7.4-3.2 1.5-4 3.1-.7 1.4.5 11.4.5 13 .1 4.8.3 9.7.4 14.5.1 5.4-.6 10.8-.7 16.2 0 .9 1.2 1 1.5.2 2.2-5.9 2.1-12.8 2.2-19.1 0-3.3-.1-6.7-.2-10 0-.7-.1-1.5-.1-2.3.3-.9.8-2.1 1.4-3.2 6.3-3.7 14.2-2.4 21.3-2.3 8.7.1 15.7.1 24.4-.9.7 0 2.8-2.9 1.8-2.9z"/><path class="highlight" d="M227.9 139.8c-.5-3.8-1.8-7.3-4.4-7-.3-.2-23.2-.9-34.3-.7-2.1 0-6.8 0-11.6.5-4.5.5-8.7.9-9.6 4.5-1.5 5.1-1.2 12.7-1.1 15.9 0 5.3.1 10.6.2 15.9.1 4.1.3 7.9.9 12.5.2 1 .4 1.9.7 2.8.4 1.1 2.5 1.1 2.6-.1.4-4 .1-10.4.2-16.7 0-3.3-1.8-28.1 1.4-29.9 1.4-.4 44.3-3.8 50.3.3 2 4 2 10.4 2.1 14 0 2.4-2.1 12.7-.1 13.6.8.4 1.5.2 2.1-.5.8-1 2.7-18.5.6-25.1z"/><path class="dark" d="M226.3 147.5l-.2-3.8c-.1-1.3-.1-2.6-.5-4-.2-.7-.6-1.4-1-2-.5-.6-1.1-1.1-1.8-1.5-1.3-.7-2.7-1-4-1.2-2.7-.3-5.2-.1-7.7-.1l-7.6.1-15.2.3-7.6.1c-1.3 0-2.5 0-3.9.1-1.3.1-2.8.4-4.1 1.3-1.3.9-2.2 2.3-2.5 3.7-.4 1.4-.4 2.8-.4 4.1.1 1.3.2 2.6.2 3.8l.2 3.8c.4 10.1.1 20.2-.3 30.3-.1 1.4 2.2 1.5 2.2.1.4-10.1.7-20.3.3-30.5l-.2-3.8c-.1-1-.1-1.9-.2-2.8l52-1.4.2 3.6c.1 2.5.2 5 .1 7.5s-.2 5-.3 7.6c-.2 1 2.1 1.1 2.1 0 .1-2.5.2-5.1.3-7.6.1-2.6 0-5.1-.1-7.7zm-52.4-8.8c1.7-1.1 4.3-1 6.8-1.1l7.6-.1 15.2-.3 7.6-.1c2.5 0 5.1-.2 7.5.1 1.2.2 2.3.4 3.2.9.9.5 1.5 1.2 1.8 2.3l.3 1.5-51.9 1.4c0-.8.1-1.5.3-2.2.3-1 .8-1.9 1.6-2.4z"/><path class="dark" d="M200.1 149.7l-10.9.4c-3.6.1-7.2.2-10.8 0-.2 0-.4 2.2-.1 2.2 3.7.2 7.4.1 11 0l10.9-.4c.2 0 .1-2.3-.1-2.2z"/><path class="dark" d="M196.7 158.3l-9.2.4c-3.1.1-6.1.2-9.1 0-.2 0-.4 2.2-.1 2.2 3.1.2 6.3.1 9.3 0l9.2-.4c.1.1.1-2.2-.1-2.2z"/><path class="dark" d="M191.7 154.2c-4.3.4-8.8 0-13.3.4-.2 0 .1 2.3.2 2.2 4.3-.5 8.7-.1 13.3-.4.1 0-.1-2.2-.2-2.2z"/><path class="dark" d="M195.6 166l-8.6.4c-2.9.1-5.7.2-8.5 0-.2 0-.4 2.2-.2 2.2 3 .2 5.9.1 8.8 0l8.6-.4c.1.1 0-2.2-.1-2.2z"/><path class="dark" d="M191.7 170.6c-4.3.4-8.8 0-13.3.4-.2 0 .1 2.3.2 2.2 4.3-.5 8.7-.1 13.3-.4.1 0-.1-2.3-.2-2.2z"/><path class="dark" d="M219.5 150.6c-.4-.4-2.4-.7-2.4-.7-1.2-.1-2.3-.2-3.5-.2-2.3 0-4.7.1-7 .4-.1 0-.8.7-.8.9 0 4.6.1 9.2.3 13.8 0 0 .2 3.9.2 4 0 .3.1.5.2.8.3.5.8.8 1.3.8h.8c.2 0 1.3-.3 1.6-.4 1.2-.6 2.1-1.2 3.1-1.7l3-1.8c.5-.3 1-.7 1.5-1.1.5-.4 1-1 1.3-1.7.6-1.3.7-2.7.7-3.8l.2-6.9v-.9c0-.6-.1-1.1-.5-1.5zm-1.6 2.5l-.2 6.8c0 1.1-.1 2.1-.5 2.9-.2.6-.8 1.1-1.5 1.5 0-.9 0-1.7-.1-2.5-.1-1-.3-2-.9-2.6.5-.4.8-.9 1-1.4.2-.6.2-1.2-.1-1.8 0 0 0-.2-.1-.2-.6-1-1.7-1.7-2.8-1.2-.1 0-.2.1-.2.1-1.6.6-2.3 2.6-1.2 4 .2.2.4.5.6.6v.1c-.3.3-.5.7-.6 1.3-.1.2-1.1 4.4-.9 6.1v.7c-.3.2-.6.4-1 .5-.2.1-.4.2-.6.2h-.3v-.2l-.2-3.4c-.2-4.1-.3-8.2-.3-12.3 1.9-.2 3.8-.3 5.8-.3 1.1 0 2.2.1 3.3.2l.8.1v.8z"/></g><g class="coffee"><path class="gray" d="M287.1 183.4c-.7-.2-2.3-.8-2.5-.9-1.7-1.1-4-1.1-6-1.4-1.5-.2-2.9-.9-4.4-1-.2-.2-.5-.3-.8-.2-1.8.4-3.8 2.2-3.8 2.2-1.1.2 2.3 21.6 2.9 23.9.4 1.5 2.6.9 2.4-.6-.3-1.7-.6-3.4-.8-5.1-.1-3.9-.5-7.6.1-11.5 2.8-3 9.1-2.9 12.8-2.5 1.4.1 1.4-2.4.1-2.9z"/><path class="dark" d="M291 182.5c-1-.1-2-.2-2.9-.3-.2-.9-.4-1.9-1.3-2.7-.5-.5-1.1-.8-1.6-.9-.6-.2-1.1-.2-1.5-.2l-5.3-.2-2.6-.1c-.9 0-1.6-.1-2.8 0-.6.1-1.2.3-1.7.6s-.9.7-1.2 1.1c-.6.8-1 1.5-1.4 2.3h-.6c-.3 0-.5 0-.8.1-.2 0-.4.1-.6.1-.2.1-.5.2-.7.4s.2.7.6 1c.4.3.8.7.8.7H268.3c.7 7.5 1.8 15.2 3.2 22.6-.1.3 2.1-.2 2.1-.4-1.4-7.4-2.4-14.8-3.1-22.3l2.2-.1c2-.1 4-.1 6 0 2.5 0 5.1.1 7.7.2-.7 7.4-1.7 14.8-3.1 22.2-.1.2 2.1.7 2.1.4 1.4-7.4 2.5-14.9 3.2-22.4.7.1 1.5.1 2.2.2.2 0 .4-2.2.2-2.3zm-18.3-.6h-1.3c.6-1 1.2-1.6 1.9-1.6.6-.1 1.6 0 2.4.1l2.6.1 5.2.2c.8 0 1.4.2 1.7.5.2.2.3.5.5.9-2.3-.1-4.6-.2-6.9-.2h-6.1z"/><path class="dark" d="M278 160.7c1.1.7 2.1 1.6 2.5 2.6.2.5.2.8.1 1.2s-.5.7-1 1c-.5.4-1.2.7-1.9 1.3-.3.3-.7.7-.9 1.2-.2.5-.3 1-.3 1.5 0 1 .4 1.9 1.1 2.6.6.7 1.6 1.3 2.7 1.3.3 0 .1-2.3 0-2.2-.3 0-.7-.2-1-.5s-.5-.8-.5-1.2c0-.2 0-.4.1-.6.1-.1.2-.3.4-.5.4-.4.9-.7 1.6-1.1.6-.4 1.5-1 1.9-2s.3-2.1-.1-3c-.8-1.7-2.1-2.6-3.4-3.5-.2-.1-1.5 1.8-1.3 1.9z"/></g><g class="person"><path class="gray" d="M53.1 100c.4-.5.6-1.1.6-1.8 0-.6-.9-.6-1 0-.1 1.4-1.4 1.3-2.3 1.8-.6.3-1.1.7-1.4 1.2-.7 1.1-.4 2.4.5 3.2.7.6 2.4 1.5 3.3.8 1-.8.9-3.5.7-4.5-.1-.3-.2-.6-.4-.7z"/><path class="gray" d="M108.2 162.2c-.6-2.9-2.1-5.7-2.8-8.5-1.4-5.5-.7-11.3.4-16.8 2.1-9.9 5.8-19.3 6.1-29.5-2.9-1.1-5 20.7-11 28.2-1.3 0-14.7 6.7-16.1 6.9s-2.6.8-2.3 2.4c.1.4 10.5 7.3 11.2 9.4 1.7 2 2.9 7.1 4.3 8.8-.2 5.1 8.6 2.8 9.7 3.5-.5-.8.3-2.8.5-4.4z"/><path class="gray" d="M111.4 100.9c-.1 0-.8 6.2.1 5.9 1.3-.4 2.3-1.4 2.5-2.7.2-1.3-.4-3.6-2.6-3.2z"/><path class="gray" d="M114.9 79.1c-1.8-1.2-3.2-3.9-4.4-5.6-1.2-1.8-2.4-3.6-3.4-5.4-.5-.8-1-1.7-1.6-2.6-.8-2.5-1.6-5-2.8-7.2-.1-.2-2.9-1.4-3-1-.9 1.3 2.6 5.1 2.1 7.7.8 2.2 2 4.3 3.1 6.4s2.2 4.1 3.7 5.9c.3.3 6.8 3.7 6.3 1.8z"/><path class="gray" d="M97.5 68.4c-2.4.8-12.7 5.2-12 4.7 2.9-1.9 5.8-4.5 8.3-6.9 1.2-1.1 2.2-2.3 3-3.7.4-.5 1-.7 1.7-.8.2 0 .4 0 .6.1.5.7 1 1.6 1.9 1.8 2.6-.6-1.9-4.7-2.7-5.4-.6-.4-2.4.8-2.8 1.2-4.1 4.4-8.2 8.5-13.5 11.6-5.4 3.2-11.3 4.7-17.3 6.2-8.1 2-21.5 5.6-23.7 15.3-.1.3.3.6.6.3 25.3-28.7 7.7 9.1 12.1 13-1.6-.4-7.4-1-6.1-7.1.2.1 6.9-1.5 6.3-2.4 0-.1 1.4-13.4.2-12.8-3.6.5-7.2 4.1-9.3 6.8-2.9 3.7-2.9 8-2.1 12.4 8.5 25.9 10.5 31.4 11.6 41.2v.1c-2.5 15.1-7.6 17.4-9 18.2-.6.3-.1 1.1.4 1 1.8-.3 2.7-1.7 4.3-2.3 1.5-.6 2.4.5 2.9 1.9s.6 3.3.6 3.6c0 .8 3-.3 3.5-.9.4-.4 1.2-1.6 1.8-1.7.4-.1.8 1.3.8 1.4-.8 5.5-.4 11.3 2.2 15.9.3.6 4.8-.2 4.4-.5.4-.2.7-.7.5-1.4-1.6-5.8-1.8-11.3.2-17 .8-2.4 2.4-4.7 3.8-7 .3-.2.5-.4.8-.6.7-.5 2.7-1.4 2.9-1.5.8 0 1.6.1 2.4.2 1.2.2 3.2-1.2 3-1.3v-.1c-.6-.5-1.3-.8-2-1.1.2-.4.1-.7.1-1.2 0-.9.9-1.2 1.5-1.7 1-1 1.7-2.3 2-3.7 2.4-1.9-2.2-2.8-2.8-3.1-1.8-.6-3.6-.9-5.4-1.5-2.3-2.3-5.2-4-7.3-6.5-3.5-4-5.9-9-7.1-14.1-2.2-9.7-1.4-19.6-.1-29.3.3-.7.5-1.3.8-2 1.6-2.1 3.4-3.8 6.1-5.2 2.2-.6 4.3-1.2 6.2-1.9 2.9-1 7-2.2 9.9-4.2 2.8-.3 5.7 0 8.4-1 1.2-.4 4.4-2.4 4.9-2.7 2.3-1.1 4.5-.8 6.9.5.2.1-3.6-5-4.4-4.8z"/><path class="gray" d="M81.9 65.3c-8.1 2.2-16.5 3-24.3 6-3 1.2-5.9 2.7-8.5 4.6-1.8 1.4-4.7 3.5-4.7 6 0 .1 10.9-8.1 37.8-16.3.1 0-.1-.3-.3-.3z"/><path class="gray" d="M87.2 53.7c-2.9-.4-6 .5-8.9.9-2.5.3-5.1.6-7.6 1.1-4.4.9-9.4 2.1-12.5 5.6-.5.6 29.2-7.6 29-7.6z"/><path class="gray" d="M85.7 115.3c.1-.2-6.1 2.2-6.8-5.2-2.1 2.1-.9 5.2 1.1 6.4.7.4 1.4.6 2.2.6 1.3.2 2.8-.1 3.5-1 .3-.3.3-.7 0-.8z"/><path class="gray" d="M95.7 119.1c-15.7 15-29.5-.6-29.9-1-.6-.5-1.3.2-.8.8.3.3.6.7.8 1 .8 5.7 10.1 7.4 14.6 8 6.7.8 14.2-2.2 17.7-8.2.1-.2.2-.4.1-.7.2-.2-2.1-.3-2.5.1z"/><path class="gray" d="M79.6 130.2s-.1.9.1 1.2c.6.7 2 .6 2.9.6.4 0 3.4-.6 3.9-1.5 0-.3-6.8-.4-6.9-.3z"/><path class="dark" d="M96 90.9c-1.7-1.3-3.8-2.1-6-1.9s-4.3 1.5-5.5 3.2c-.6.8-1 1.7-1.3 2.7-.1-.3-.2-.6-.4-.9-.8-1.7-2.3-3.2-4.2-4-1.9-.8-4.1-.5-5.8.4-1.7.9-3.2 2.5-3.6 4.6s.3 4.1 1.4 5.6c.5.8 1.2 1.5 1.9 2.1.8.6 1.6 1.1 2.5 1.4.9.3 1.9.5 3 .4.8-.1 1.6-.3 2.3-.8 1.5-.7 2.5-2 3-3.5.2.4.3.8.6 1.2.5.9 1.2 1.7 2 2.4s1.8 1.3 2.9 1.6c1.1.3 2.2.3 3.2.1 0 0 .1 0 .1-.1 2.1-.3 3.8-1.4 5-2.9 1.3-1.7 2.1-3.8 2-6-.1-2.2-1.4-4.3-3.1-5.6zm-14.9 8.3c-.2 1-.9 1.9-1.7 2.4 0 0-.2.3-.7.4-.8.4-1.9.3-2.9-.1-.7-.2-1.3-.6-1.9-1-.5-.4-1-1-1.5-1.6-.8-1.2-1.3-2.6-1-3.9.2-1.3 1.2-2.4 2.4-3s2.7-.8 3.9-.3c1.3.5 2.3 1.6 3 2.9.5 1.4.8 2.9.4 4.2zm14.3 1.8c-1.5 2.1-4.1 2.3-4.2 2.4-1.4.1-2.8-.3-3.8-1.3-.6-.5-1.1-1.2-1.5-1.9-.4-.7-.6-1.4-.7-2.2-.2-1.6.3-3.2 1.2-4.5.9-1.3 2.3-2.2 3.9-2.3 3.1-.3 6.5 2.3 6.6 5.4.1 1.5-.5 3.2-1.5 4.4z"/><path class="dark" d="M85.2 113.2c-.4.6-1.1 1-1.9 1-.8.1-1.6-.2-2-.8-.4-.5-.6-1.3-.4-2.1.2-.8.7-1.5 1.3-1.7.1 0-.7-2.2-.9-2.1-1.4.6-2.3 1.9-2.6 3.2-.3 1.3-.1 2.9.8 4.1 1 1.2 2.5 1.7 3.9 1.6s2.8-.7 3.7-2c.1-.1-1.9-1.3-1.9-1.2z"/><path class="dark" d="M100 117.9l-.8-.8c-.2-.2-.4-.4-.6-.5 0-.1-.1-.2-.1-.2-.4.4-1 .7-1.7.7-.6 0-1.3-.2-1.7-.6 0 0-.1.1-.3.2-.2.1-.4.3-.6.5l-.8.8c.3.3.7.6 1.2.8-3.3 3.7-8.3 6-13.3 5.9-5.2-.1-10.4-2.7-13.5-6.8.5-.3 1.1-.7 1.5-1.1l-.8-.8c-.2-.2-.4-.4-.6-.5-.1-.2-.2-.3-.2-.3-.9.9-2.3 1.5-3.6 1.5 0 0 0 .6-.1 1.1v1.1c.6 0 1.1-.1 1.6-.2 3.6 5 9.6 8.1 15.7 8.2 6.1.1 12.1-2.8 15.9-7.6 1-.1 2-.5 2.8-1.4z"/><path class="dark" d="M86.5 128.1c-2.5.5-5 .7-7.5.5-.1 0-.3 2.2-.2 2.2 2.7.2 5.5.1 8.2-.5.1 0-.4-2.2-.5-2.2z"/><g><path class="dark" d="M72.4 84.6c-3.8 1.9-7.1 5-9.1 8.7-.1.1 1.9 1.2 2 1.1 1.9-3.3 4.8-6.1 8.2-7.8 0-.1-1-2.1-1.1-2z"/><path class="dark" d="M96.2 83.5c-.1 0-.5 2.2-.4 2.2 2.7.5 5 2.8 5.6 5.5 0 0 2.2-.4 2.2-.5-.7-3.6-3.7-6.6-7.4-7.2z"/></g><path class="dark" d="M122.4 195.1c-5 2.6-10.3 4.7-15.7 5.9-5.4 1.3-11.1 1.7-16.6.9-5.5-.7-10.9-2.5-15.4-5.6-1.1-.8-2.1-1.7-2.9-2.7-.8-1-1.4-2.2-2-3.5-1.1-2.3-1.8-4.6-2.1-7 1.5.1 3.1.1 4.6-.4l.2-.2c-.2-1-.3-2.2-.3-3.3 0-1.2-.1-7.7.5-10.4 0-.2-2.2-.6-2.2-.4-.4 2.4-.5 4.8-.6 7.2v3.6c0 .5.1 1.1.1 1.7-1.1.1-2.2 0-3.4-.2 0 0-2.2-.3-2.5-.4-.3-.1-.5-.2-.5-.3-.1-.1-.2-.4-.2-.8-.5-3.5-.8-10.8-.8-10.8.1-7.5 4.1-14.9 10.2-19.3 0 .3 0 .6.1.9.1.8.7 1.5 1.2 1.9.5.4 1 .7 1.5 1 1 .5 2.2.8 3.3 1 1.2.1 2.3 0 3.5-.3 1.1-.3 2.3-.9 3.2-2 .4-.6.6-1.3.7-1.9v-.6c1.8.9 3.5 2.2 4.9 3.7 1 1.1 1.9 2.3 2.8 3.5.8 1.2 1.3 2.5 1.7 4 .7 2.9.8 6.1 1.6 9.2.2.8.4 1.5.6 2.3l.2.6.1.4h-3.6c-.2-2-.5-4-1-6-.1-.3-2.3.2-2.2.5 2.2 9.2.7 19.3 3.6 29 .1.3 2.3-.4 2.2-.6-2-6.6-1.8-13.6-2.4-20.7h.5c1.3 4.3 2.8 8.5 5.2 12.4 1.2 2 2.7 4 4.6 5.6 1.8 1.6 4 2.9 6.4 3.6.3.2.9-2 .7-2.1-2.1-.6-3.9-1.7-5.6-3.1-1.6-1.4-3-3.2-4.1-5.1-2.1-3.5-3.6-7.3-4.8-11.3h.8c.2 0 .4 0 .6-.1.4-.1.7-.2.9-.5.5-.5.7-1.2.4-1.9l-.2-.5-.1-.3-.2-.5c-.2-.7-.4-1.5-.6-2.2-.8-2.9-.9-6-1.6-9.2-.4-1.6-1-3.2-2-4.6-.2-.3-.3-.5-.5-.8-.5-2.5-1-4.9-1.4-7.2-.2-1.2-.4-2.4-.5-3.6-.1-.8-.1-1.7-.1-2.5 1.6-.7 3.1-1.5 4.5-2.4 1-.7 2.1-1.5 3-2.3-1.8 10.7.4 22 6.5 31 .1.3 1.9-.9 1.8-1.2-6.5-9.7-8.5-22.2-5.2-33.4.2-.3.4-.6.5-.9 1.6-2.7 2.8-5.6 3.7-8.6 1.5-4.9 2.5-9.9 3.2-14.9.8 0 1.5-.1 2.2-.3-1.4 8.4-2.6 16.8-3.1 25.4-.3 4.6-.3 9.3.3 14 .3 2.3.8 4.6 1.5 6.9.3 1.1.7 2.2 1.2 3.3l.3.8.2.4.1.2c.1.1.1.2.2.3.2.4.5.7.9.9.2.1.4.3.7.4s.7.2 1.2 0c.4-.2.5-.5.4-.8-.1-.2-.3-.4-.6-.6-.3-.2-.8-1.1-.8-1.1l-.1-.2-.2-.4-.3-.8c-.4-1-.8-2.1-1.1-3.1-.6-2.1-1.1-4.3-1.4-6.6-.6-4.5-.6-9-.3-13.5.6-9 1.9-17.9 3.4-26.8 1.2-.9 2.2-2.1 2.5-3.7.1-.9.1-1.9-.3-2.8-.2-.8-.8-1.5-1.5-2-.1-4 .3-8.1.4-12.2 0-2.1 0-4.3-.3-6.4-.3-2.2-.7-4.3-1.4-6.4-1.3-4.1-3.4-8-6.1-11.4-1.4-1.7-2.8-3.3-4.7-4.7-1.6-1.1-3.8-1.9-6-1.4 0-.6-.1-1.1-.1-1.7-.2-1.3-.7-2.6-1.6-3.7-.5-.5-1.1-1-1.6-1.3-.5-.3-1.1-.6-1.7-.8-1.2-.5-2.4-.8-3.6-1-4.8-.8-9.7-.1-14.3 1.4-4.6 1.5-8.7 3.9-12.5 6.8-3.7 2.9-7.1 6.4-9.8 10.2v.1c-1.7 1.6-3.2 3.5-4.5 5.4C46 75.5 44 80.1 42.9 85c0 .1 0 .2.1.3-1.6 3.2-2.5 6.7-2.1 10.4 0 .1 0 .2.1.2-.2 1-.3 2-.2 3.1 0 1.6.3 3.2.6 4.8.7 3.1 1.6 6 2.6 8.9 2.1 5.8 4.6 11.4 6.4 17.2 1.8 5.7 2.9 11.8 2.2 17.6-.4 2.9-1.2 5.8-2.6 8.4-1.4 2.6-3.2 4.9-5.5 6.6-.6.2.7 2.1 1.2 1.6 2.7-1.9 4.7-4.5 6.2-7.3s2.4-6 2.8-9.1c.8-6.4-.4-12.7-2.2-18.6-1.8-5.9-4.4-11.6-6.4-17.3-1-2.9-1.9-5.7-2.6-8.7-.6-2.9-.9-5.9.1-8.4.1-.1 0-.2 0-.3.6-2.2 1.9-4.2 3.6-5.9 1.9-1.9 4.3-3.4 6.8-4.6.1 0 .2-.1.3-.1-.5 4.2-.8 8.4-1 12.6-.2-.1-.5-.2-.8-.3-1-.3-2-.3-2.9 0-.9.3-1.8.9-2.4 1.7-.6.8-1 1.6-1.1 2.7-.1 1 .2 2 .6 2.8.5.8 1.1 1.5 1.8 2.1.7.6 1.5 1 2.4 1.2.7.2 1.5.3 2.2.2 0 1.4 0 2.8.1 4.1.1 3 .2 6.1.7 9.2.3 1.5.6 3.1 1.1 4.6s1.2 3 2 4.3c.5 1 1.1 1.9 1.7 2.8 0 0-.1.1 0 .1 1.1 6 1.6 12.1.9 18.1-.6 6-2.5 11.8-5.8 16.8-.2.3 1.6 1.6 1.9 1.3 3.6-5.3 5.5-11.5 6.2-17.8.6-5 .3-10-.3-14.9.4.4.7.8 1.1 1.1.6.5 1.2 1.1 1.8 1.5.7.5 1.3.9 2 1.3.5.3 1 .6 1.5.8 0 .9 0 1.9-.2 3-.2 1.2-.4 2.3-.7 3.5-.6 2.3-2 7-2 7-3.3 4.8-5.1 10.6-4.8 16.4 0 .1.2 2.8.3 4 .1 1.8.3 3.7.6 5.5.1.5.2 1.1.6 1.8.5.7 1.2 1 1.7 1.1.6.2 1.9.4 1.9.4.2 3 1.1 5.7 2.4 8.2.6 1.3 1.3 2.7 2.2 3.9.9 1.3 2.1 2.3 3.3 3.2 4.9 3.4 10.6 5.3 16.4 6 5.8.8 11.7.3 17.4-1 5.7-1.3 11.1-3.4 16.2-6.1.8-.2-.3-2.2-.9-1.9zm-69.3-93.3v2.7c-2 .6-5-1.8-4.7-3.8 0-.5.3-1.1.6-1.5.3-.4.8-.8 1.3-.9 1-.3 2.2 0 2.8.9h.1c-.1.9-.1 1.7-.1 2.6zm15.5 47.7c.2-.8.5-1.6.7-2.4.3-1.2.5-2.4.7-3.7.1-.7.2-1.5.2-2.2.2.1.3.2.5.2 2.1.9 4.3 1.5 6.5 1.8l-.1 1.2c-.9.4-6.9 3.6-8.5 5.1zm14.9.6c-.4.5-1.1.9-1.9 1.2-.8.2-1.7.3-2.6.2-.9-.1-1.8-.3-2.5-.7-.4-.2-.8-.4-1.1-.7-.3-.2-.4-.4-.4-.6-.1-.5.1-1.3.7-1.7.4-.4.9-.7 1.6-1 .4.1 2.1.1 2.1 0v-3.3h.4c.5 0 .9 0 1.4.1v3.6h2.2c.3.3.4.9.4.9.1.7 0 1.5-.3 2zm2.3-3.5c-.5-.8-1.3-1.5-2.4-1.7v-1.4c1.9-.1 3.9-.4 5.8-.9l1.8-.6c0 .6.1 1.3.1 1.9.1 1.3.3 2.5.5 3.8.2 1.1.4 2.1.6 3.2-1.9-1.8-4-3.3-6.4-4.3zm30.2-45.4c.2.5.2 1.1.1 1.7-.3 1.8-2.5 3.4-4.6 3.4.3-2.1.5-4.3.7-6.4 1.1-.2 2.1-.2 2.8.2.5.2.9.6 1 1.1zm-1.4-18.7c.1 1.2.1 2.4.1 3.6-.1 3.7-.4 7.5-.4 11.4h-1c-.3 0-.6 0-.8.1.3-3.5.5-6.9.6-10.4 0-.3-.2-.5-.3-.6.1-1.2.1-2.4.1-3.7V81c.5.5 1.1 1 1.6 1.5h.1zM100.8 58c.9.2 1.7.5 2.4 1.1 1.5 1.1 2.9 2.6 4.2 4.2 2.5 3.2 4.5 6.8 5.7 10.7.6 1.7 1 3.4 1.2 5.2-1.2-1.2-2.4-2.4-3.4-3.8-1.5-1.9-2.7-4.1-3.8-6.3-1.1-2.2-2.2-4.6-3.6-6.8-.9-1.5-2-3-3.3-4.4.2 0 .4 0 .6.1zm7.7 18c-1.4-.7-2.7-1.6-3.9-2.6-2.1-1.6-3.9-3.6-5.7-5.6 1.2-1 2.3-2.1 3.3-3.2 1 1.8 1.8 3.6 2.8 5.5 1 2 2.2 4 3.5 5.9zM97.9 58.8c1.2 1.1 2.2 2.4 3.1 3.8-2.1 2.5-4.6 4.6-7.4 6.3-2.1 1.2-4.4 2.1-6.7 2.4 4.4-3.4 8.2-7.6 11-12.5zM53.2 81.9c-2.7 1.3-5.3 2.9-7.5 5-.7.7-1.3 1.3-1.8 2.1.7-2.2 1.8-4.3 3.3-6.1 1.4-1.8 3.2-3.3 5.1-4.5 1.9-1.3 4-2.4 6.2-3.3 8.6-3.7 18.5-5 27.2-9.9.5-.3-.7-2.2-1.1-2-8.2 4.7-17.9 6-27 9.8-2.3 1-4.5 2.1-6.5 3.5-1.6 1.1-3.1 2.2-4.4 3.6 1-2.6 2.3-5.2 4-7.5 2.6-3.9 6-7.4 10.1-9.5C65 61 69.7 60 74.4 58.7L88.5 55c.6-.2 0-2.4-.5-2.3l-14.1 3.7c-4.4 1.2-8.9 2.2-13.3 4.2 4.5-4.3 9.8-7.8 15.7-9.8 4.2-1.4 8.8-2 13.2-1.3 1.1.2 2.1.5 3.1.9.5.2 1 .4 1.4.7.4.3.8.5 1.1.9 1.1 1.3 1.4 3.3 1.2 5.4-.1 0-.2.1-.2.2-2.8 4.8-6.7 9.1-11.1 12.5-2.2 1.7-4.6 3.2-7.1 4.4s-5.2 2.1-7.9 2.8c-5.5 1.4-11.4 2.1-16.8 4.6zm10.9 52.8c-2.1-2-3.8-4.4-5.2-6.9-1.5-2.5-2.3-5.2-2.8-8.1-.5-2.9-.6-5.9-.7-8.9-.1-3-.1-6-.1-9 .1-6 .5-12 1.2-17.9 0-.4 0-.7-.2-.9 4.4-1.6 9.4-2.4 14.1-3.6 2.8-.7 5.7-1.6 8.4-2.9 1.8-.9 3.5-1.9 5.1-3 1.9.2 3.8 0 5.6-.4 1.9-.5 3.6-1.3 5.2-2.3l2.4-1.5c1.9 2.1 3.9 4.1 6.1 5.9 2.2 1.7 4.6 3.2 7.4 4.2.1 1.2.1 2.4.1 3.5 0 1.5-.1 3.1-.2 4.7l.1.1c-.6 11.8-1.7 23.7-5 34.9-.9 2.8-1.9 5.6-3.4 8-1.5 2.5-3.5 4.5-5.9 6.1-2.4 1.6-5.1 2.8-7.9 3.6-2.8.8-5.7 1-8.6.8-2.9-.2-5.8-.9-8.4-2-2.7-1.1-5.3-2.5-7.3-4.4z"/><path class="dark" d="M147.4 190.9c-1.8.8-3.7 1.4-4.8.6-.6-.3-1.1-1.1-1.9-2-.4-.4-.9-.9-1.5-1.2s-1.2-.5-1.8-.6c-2.5-.4-4.7.4-6.6 1.4-2 1-3.7 2.5-5 4.4-.2.3 1.7 1.5 1.8 1.3 1.1-1.5 2.5-2.8 4.2-3.7 1.6-.9 3.6-1.4 5.2-1.1.8.2 1.4.5 2 1.1s1.2 1.6 2.4 2.4c1.2.7 2.6.8 3.8.6s2.2-.6 3.2-1.1c.2-.1-.8-2.2-1-2.1z"/></g><g class="swirls"><path class="highlight" d="M280.3 104.7c-.4 1-.1 2.1.4 2.8.5.7 1.3 1.3 2.4 1.4 1 0 1.9-.4 2.5-1.1s1-1.5 1.1-2.4c.2-1.9-1-3.5-2.4-4.3-1.4-.9-3.2-1-4.8-.5-1.6.5-2.9 1.5-3.8 2.9s-1.3 3.1-.8 4.7c.4 1.6 1.5 3 2.8 3.8 1.3.9 3 1.4 4.7 1.1.5-.1.1-1.5-.3-1.5-2.4.4-5.1-1.4-5.8-3.8-.3-1.2-.1-2.5.6-3.5.7-1.1 1.8-1.9 3-2.3s2.5-.3 3.6.3 1.8 1.7 1.7 2.8c-.1.6-.3 1.1-.7 1.5-.4.4-.9.6-1.3.6s-.9-.3-1.2-.8c-.3-.4-.4-.9-.2-1.3-.1.1-1.3-.9-1.5-.4z"/><path class="highlight" d="M205.5 78.8c.2 1.7.4 3.4-.2 4.7-.3.7-.7 1.2-1.3 1.5s-1.4.5-2.2.5c-1.6.1-3.4-.3-5.3.2-.5.1-1 .3-1.4.6-.4.3-.8.7-1.1 1.1s-.5 1-.6 1.5c-.1.6 0 1.2.3 1.7.2.3 1.4-.6 1.3-.7-.3-.4-.2-1.1.2-1.7s.9-1 1.6-1.2c1.4-.4 3.1-.1 5-.1.9 0 1.9-.2 2.8-.7.9-.5 1.6-1.3 2-2.3.7-1.9.5-3.8.3-5.5.1 0-1.4.2-1.4.4z"/><path class="highlight" d="M152 131.9c-1 .1-2.1-.5-2.8-1.4s-.9-2.1-.4-3.1c.1-.3.3-.6.4-1 .1-.4.2-.9.1-1.4-.2-.9-.8-1.7-1.5-2.1-.7-.5-1.6-.6-2.4-.6-.8 0-1.5.2-2.2.4-.2.1.3 1.5.5 1.4 1.2-.4 2.5-.6 3.3 0 .4.3.8.7.8 1.1.1.4-.1.8-.4 1.5-.3.7-.4 1.6-.3 2.4.1.8.5 1.5.9 2.2.9 1.2 2.4 2.2 4.1 2 .2.1 0-1.4-.1-1.4z"/><path class="highlight" d="M250.1 45.7c-.2-.3-.4-.5-.6-.7.2-.6.2-1.3.1-1.9-.1-1.2-.6-2.3-1.3-3.2-.7-.9-1.6-1.7-2.6-2.2-.9-.5-1.9-.8-2.9-1-2-.3-3.7-.3-4.9 0-.6.2-1.1.4-1.4.5-.3.2-.5.3-.5.3-.4.3.1 1 .4.8 0 0 .5-.3 1.6-.5 1.1-.1 2.7-.1 4.4.3 1.7.4 3.5 1.4 4.5 2.9.5.8.8 1.7.9 2.5v.1c-.2-.1-.3-.1-.5-.2-.7-.2-1.5 0-2.1.5-.3.2-.5.6-.6 1.1-.1.4.1.9.3 1.3.5.7 1.2 1 1.9 1 .4.1.8 0 1.1-.2.3-.1.6-.4.8-.6l.1-.1c0 .1.1.1.1.2.6.8 1 1.6 1 2.2-.1.3-.2.6-.4.8-.3.2-.7.5-1 .8-.7.7-.8 1.7-.8 2.3 0 .7.1 1.2.2 1.5.1.3.1.5.1.5.1.4.9.2.9-.2 0 0 0-.2-.1-.5s-.1-.8-.1-1.3.2-1.1.6-1.5c.2-.2.6-.4 1-.7.5-.4.8-1 .9-1.6.1-1.3-.5-2.3-1.1-3.2zm-3.1 0c-.1.1-.2.1-.3.1-.2 0-.5-.2-.6-.3 0-.1 0-.2.1-.3.2-.1.5-.2.8-.2.2 0 .3.1.5.2-.1.1-.1.2-.2.3-.1.1-.2.1-.3.2z"/><path class="highlight" d="M157.1 31.9c-1.4-1.9-3.6-3-5.9-3-2.3.1-4.5 1.3-5.8 3.2-.6 1-1 2-1.4 2.9-.3.7-.7 1.4-1.2 1.9v-.1c-.3-.3-.6-.7-1-1-.2-.1-.4-.3-.6-.5-.3-.1-.6-.3-1-.3-.5 0-1 .4-1.2.8-.2.4-.3.8-.3 1.2 0 .9.6 1.5 1.2 1.8.6.4 1.3.5 1.9.4.2 0 .4 0 .6-.1.1.2.2.3.3.5.2.7.3 1.4.1 2.1s-.6 1.3-1.1 1.6c-.5.4-1.2.4-2.1.4-.4 0-.9 0-1.4.1-.5.1-1.1.3-1.5.7-.9.8-1.1 2-.9 3s.7 1.9 1.1 2.6c.3.5 1.6-.4 1.3-.8-.4-.7-.8-1.4-.9-2-.1-.6.1-1.3.5-1.7.4-.4 1.1-.4 1.9-.4.4 0 .9 0 1.4-.1.5-.1 1-.3 1.5-.5 1.8-1.2 2.4-3.6 1.7-5.4-.1-.3-.3-.6-.4-1 .8-.8 1.4-1.6 1.7-2.5.4-1 .8-1.9 1.3-2.7 1-1.5 2.8-2.5 4.6-2.5 1.8 0 3.6.9 4.7 2.4-.2.2 1.1-.6.9-1zm-16.6 5.5c-.3-.2-.5-.4-.5-.6 0-.1 0-.3.1-.3 0 0 .3.1.6.4l.7.7c-.4 0-.7 0-.9-.2z"/></g><g class="updates"><path class="highlight" d="M264.3 79.4c-.9-2.9-3.6-5.4-6.7-4h-.2c-3.8.6-7.2-1.9-10.9-2.5-3.1-.5-6.2-.2-9.2.8-4.6 1.6-9.1 5.5-10.6 10.2-.4 1.3-.4 2.6-.1 3.7 0 .5-.1 1.1-.2 1.6-.3 1.5-1.3 2.5-1.9 3.9 0 .1-.1.2-.1.2-.5.7-.9 1.6-1.2 2.6-1 2.2-1.2 4.7-.5 7.1.9 2.9 3.6 5.4 6.7 4h.2c3.8-.6 7.2 1.9 10.9 2.5 3.1.5 6.2.2 9.2-.8 4.6-1.6 9.1-5.5 10.6-10.2.4-1.2.4-2.4.1-3.5.2-1.2 0-2.5.6-3.6.4-.7 1-1.5 1.4-2.2.5-.7 1-1.7 1.3-2.8 1.1-2.2 1.3-4.7.6-7zM251 95.1c-.3 1.2-1.2 2.1-1.8 3.1-.3.2-.5.4-.8.6-.6.3-1.1.5-1.7.7-1.1.1-2.3.3-3.4 0-.8-.2-1.6-.7-2.4-1.2-.1-.2-.1-.5-.2-.7 1-1.8.2-4.9-1.4-6.3-.7-.7-1.6-1.2-2.6-1.5-.9-1.2-1.3-2.2-.5-3.8.1-.2.2-.4.3-.5.6-.7 1.3-1.4 2.1-1.8.6-.3 1.1-.5 1.7-.7 1.1-.1 2.3-.3 3.4 0 .8.2 1.6.7 2.4 1.2.1.2.1.5.2.7-1 1.8-.2 4.9 1.4 6.3.8.7 1.7 1.2 2.7 1.6.5.6.9 1.2.6 2.3z"/><path class="dark" d="M256.7 82.8c-3.2-4.9-9.2-7.7-15-6.8-5.8.9-10.8 5.2-12.5 10.8-.1.4 2.1 1 2.2.6 1.4-4.7 5.8-8.5 10.6-9.2 4.9-.7 10.1 1.7 12.8 5.8.1.2 2-1 1.9-1.2z"/><path class="dark" d="M259.8 78.4c-.4 1.9-.1 3.5-.2 5s-.5 2.7-1.5 3.3c-1 .6-2.5.7-3.8.3-1.3-.4-2.6-1.2-4-2.1-.2-.1-1.5 1.8-1.3 1.9 1.3.9 2.8 1.9 4.6 2.4 1.8.6 3.8.5 5.6-.5.9-.5 1.6-1.4 2-2.3s.5-1.9.6-2.8c.1-1.7-.1-3.3.2-4.7 0-.1-2.2-.7-2.2-.5z"/><path class="dark" d="M231.1 99.1c3.2 4.9 9.2 7.7 15 6.8 5.8-.9 10.8-5.2 12.5-10.8.1-.4-2.1-1-2.2-.6-1.4 4.7-5.8 8.5-10.6 9.2-4.9.7-10.1-1.7-12.8-5.8-.2-.2-2.1.9-1.9 1.2z"/><path class="dark" d="M227.9 103.4c.4-1.9.1-3.5.2-5s.5-2.7 1.5-3.3c1-.6 2.5-.7 3.8-.3 1.3.4 2.6 1.2 4 2.1.2.1 1.5-1.8 1.3-1.9-1.3-.9-2.8-1.9-4.6-2.4-1.8-.6-3.8-.5-5.6.5-.9.5-1.6 1.4-2 2.3s-.5 1.9-.6 2.8c-.1 1.7.1 3.3-.2 4.7 0 .2 2.2.7 2.2.5z"/></g><g class="eyes"><circle class="dark" cx="77" cy="97.4" r="1.3"/><circle class="dark" cx="90.7" cy="97.4" r="1.3"/></g></svg>