<svg id="svg-home-themes" xmlns="http://www.w3.org/2000/svg" viewBox="0 0 320 240" style="enable-background:new 0 0 320 240" aria-labelledby="title" role="group"><style>@keyframes bounceUp{0%{transform: translateY(0px) scale(1.0)}10%{transform: translateY(1px) scale(0.99)}30%{transform: translateY(-5px) scale(1.01)}50%{transform: translateY(1px) scale(0.99)}60%{transform: translateY(0px) scale(1.0)}100%{transform: translateY(0px) scale(1.0)}}.animate-bounceUp{animation: bounceUp 2s ease-in-out infinite;visibility: visible;-webkit-backface-visibility: hidden}#svg-home-themes *{-webkit-transition: all 0.3s ease-in-out;-moz-transition: all 0.3s ease-in-out;-ms-transition: all 0.3s ease-in-out;-o-transition: all 0.3s ease-in-out;transition: all 0.3s ease-in-out}#svg-home-themes:hover .site1,#svg-home-themes:hover .site2,#svg-home-themes:hover .site3,#svg-home-themes:hover .site4{animation: bounceUp 3s 0s ease infinite;transform-origin: right bottom}#svg-home-themes:hover .eyes{transform: translate(0, -2px) }#svg-home-themes:hover .site4{animation-delay: 0.45s}#svg-home-themes:hover .site3{animation-delay: 0.9s}#svg-home-themes:hover .site2{animation-delay: 1.35s}#svg-home-themes:hover .site1{animation-delay: 1.70s}#svg-home-themes:hover .person .hand{transform: translateY(-2px) }#svg-home-themes .gray{fill:#CFD8DC}#svg-home-themes .dark{fill:#273339}#svg-home-themes .highlight{fill:#CFD8DC}#svg-home-themes:hover .swirls{opacity: 1}#svg-home-themes:hover .highlight{fill:#97D5FF}#svg-home-themes .swirls { opacity: 0; } #svg-home-themes:hover .swirls { opacity: 1; } .sr-only { font-size: 0; }</style><title id="title">StudioPress Themes illustration</title><text id="nvda-title" class="sr-only">StudioPress Themes illustration</text><g class="base"><path class="highlight" d="M305.2 208.7c-9.9-.5-101.3-.5-107.1-.2-8.7.5-129.4 1.5-142.6 1.4-13.4-.1-27.3-1.7-40.6.7-1.8.3-1.8 4 0 4.4 12.5 2.4 25.4 1.3 37.9 1.5 12.9.2 64.1.8 76.7.5 6.3-.1 59.8-1.3 69.5-1.8 5.7-.3 29.4 1.5 35.7.7 1.1-.1 15.9 0 21.8.1 4.4.1 8.8.2 13.3.2 3.5 0 27.5-.1 35.7-1.9 2.5-.6 1.9-5.5-.3-5.6z"/><path class="dark" d="M304.4 207.9c-24 0-48-.4-72-.6-12-.1-24-.3-36-.3-6 0-12-.1-18 0-6 0-12 .1-18 .3-24 .6-48 1.8-72 1.7s-48-.9-72.1-1c-3.3 0-3.3 2.3 0 2.2 24 .1 48 .9 72.1 1s48.1-1.1 72.1-1.7l18-.3h18l36 .3c24 .3 48 .6 72.1.6 2.4 0 2.4-2.2-.2-2.2z"/></g><g class="flower"><path class="gray" d="M65.3 187.5c-4.2-1.7-17.3-.2-17.3.8-.1 5.1 2.4 11.6 3.8 16.5.6 2.2 3.9 1.3 3.4-.9-.2-.9-1.3-5.2-1.7-6.5-.2-1.1-.4-2.2-.5-3.3-.1-3.6 4.3-3.5 7-4.4 1.7 0 3.3.2 5 0 1.3-.2 1.4-1.7.3-2.2z"/><path class="gray" d="M47.4 166.6c-.5-.3-.8-.2-1.3-.2-.2 0-.4-.1-.6-.3-.4-.4-.3-1.3-.3-1.8.1-.5-.3-1-.8-.8-1.7.6-2.1 2-1.2 3.3s4.8.1 4.2-.2z"/><path class="dark" d="M67 188.3c0-.3-.1-.7-.3-1s-.5-.6-.8-.8c-.3-.2-.5-.3-.7-.4-.4-.2-.8-.3-1.3-.4-.9-.2-1.7-.3-2.6-.4-1.1-.1-2.2 0-3.2.1-.1-1.5-1.5-4.5-1.5-4.5.5-.1 1.1-.3 1.7-.7.4-.3.8-.6 1.1-1.1.3-.5.4-.9.5-1.3.2-.8.3-1.5.3-2.3 0-.2-.1-1.4-.1-1.4-.2-.7-.4-1.4-.9-1.6-.3-.1-.5-.2-.9-.1-.3.1-.7.2-1 .3-.4.2-1.1.7-1.3.8-.7.6-1.2 1.4-1.5 2.2-.3.9-.4 1.8-.4 2.7-.8-.6-1.7-1-2.4-1.4-.9-.4-1.6-.9-2.3-1.4-.7-.6-1.2-1.2-1.7-2-.8-1.3-1.3-2.9-1.3-4.5 1.2-.1 2.3-.7 3.2-1.6.4-.4.7-1 .9-1.6 0-.3.1-.5.1-.8 1 .3 2.2.1 3.1-.3.7-.3 1.3-.8 1.7-1.4.2-.4.4-.7.5-1.2.1-.5 0-1.1-.3-1.6s-.8-.8-1.2-.9c-.4-.1-.8-.2-1.2-.2-.8 0-1.5.2-2.1.5-.9.5-1.5 1.2-2 1.9-.2-.2-.4-.4-.7-.5-.1-.1-.3-.2-.5-.3.4-.7.7-1.6.8-2.4 0-.7-.1-1.4-.5-2.1-.2-.3-.4-.7-.7-1-.3-.3-.9-.7-1.4-.7-.5-.1-1.1.1-1.5.4-.5.4-.6.6-.9 1-.4.7-.5 1.4-.5 2.1 0 .9.3 1.9.9 2.7-.7.3-1.3.8-1.9 1.5-.2.2-.3.5-.5.8-.1.3-.3 1.1-.3 1.1-.7-.2-1.4-.2-2.1-.1-.6.1-1.2.4-1.8.8-.3.2-.5.5-.8.9-.2.4-.3.9-.3 1.3.1.5.3.9.6 1.2.2.2.4.3.6.4.1.1.2.1.3.1.1 0 .2.1.3.1.7.2 1.4.2 2 0 .9-.2 1.7-.7 2.3-1.5.3.4 1 1.1 1.1 1 .2.1.5.2.7.3 0 2.1.6 4.2 1.6 5.9.4.5.8 1.1 1.2 1.6-.2 0-.5.1-.7.1-.7.2-1.3.4-2 .7-.2.1-1 .5-1.2.7-.1.1-.9.8-.9.9 0 .1-.1.2-.1.3-.1.7.3 1.3.9 1.8.1.1.3.2.5.4.2.1.4.2.5.3.2.1.5.2.7.3 1 .3 2.1.2 2.9-.1 1.4-.4 2.9-1.1 3.9-2.3l1.5.9c.7.5 1.3 1.1 1.7 1.9.6 1 1 2.2 1.1 3.4l-4.1.3-2.3.2-1.2.1c-.4 0-.8 0-1.1.1-.3.1-.6.3-.8.6-.2.3-.2.5-.2.9l.6 4.4c.2 1.5.5 3 .8 4.5.6 3 1.4 6 2.2 8.9.3.7 2.4.1 2.3-.4-.8-2.9-1.6-5.8-2.2-8.8-.3-1.5-1.1-6.6-1.1-6.6l-.2-1.3 8.2-.7c1.6-.1 3.1-.3 4.6-.2.7 0 1.4.1 2.1.3l.9.3c.3.1.4.3.4.2v.3l-1.3 7.7-1.4 8.7c-.1.6 2.1 1 2.2.4l1.4-8.7 1.3-7.7c0-.4.1-.7 0-1zm-14.8-26.4c.3-.2.7-.3 1-.3.2 0 .3 0 .5.1 0 0-.1.2-.1.3-.2.3-.5.5-.8.7-.5.2-1.1.3-1.6.2.3-.4.6-.8 1-1zm-6.5-4.6c.1-.1.2-.3.2-.2.1.1.2.2.3.4.1.3.2.7.2 1 0 .4-.1.8-.4 1.3-.3-.4-.5-1-.5-1.5 0-.4.1-.7.2-1zm-2.1 7.1c0-.1 0-.1.1-.3.1-.1.1-.3.2-.4.4-.5.9-.8 1.5-.9.6-.1 1.2 0 1.7.3s.9.9 1.1 1.4c.1.6.1 1-.3 1.4-.8.9-2.3 1.2-3.4.6-.3-.4-.6-.9-.8-1.3-.1-.3-.2-.6-.1-.8zm-3.8 2.7c-.3.1-.6.1-.9 0h-.1l.2-.2c.2-.2.5-.3.8-.4.3-.1.6 0 1 0-.3.3-.6.5-1 .6zm7.3 12.4c-.6.2-1.3.2-1.8.1-.1 0-.3-.1-.4-.1h-.1l.4-.2c.5-.2 1-.4 1.5-.5.7-.1 1.5-.2 2.2-.1-.5.4-1.2.7-1.8.8zm9.4-3.3c.2-.5.5-1 .8-1.3.1-.1.2-.1.3-.2.1 0 .2 0 .2-.1V175.3c0 .6-.1 1.3-.2 1.9-.1.6-.3.8-.6 1.1-.2.2-.5.3-.7.3-.1-.9-.1-1.7.2-2.4z"/></g><g class="mouse"><path class="gray" d="M228.8 202.7c-2.2-1.6-11.9-1.2-12.3.5-.2.3.2 1.2.5 1.5 1.3 1.1 3 .8 4.6.8l6.6-.3c1.7 0 2.4-2.1.6-2.5z"/><path class="dark" d="M232.1 203c-5-4.2-12.7-4.4-17.8-.4-.2.1 1.3 1.9 1.4 1.8 4.2-3.3 10.9-3.2 14.9.3.1.1 1.6-1.6 1.5-1.7z"/></g><g class="books"><path class="gray" d="M266.4 189.3c.2-4.9 1.2-10.8-.4-15.5-.3-.9-1.3-.8-1.7 0-2 4.8-1.4 11.3-1.6 16.5-.2 4.3-1.4 9.8.9 13.7.5.8 1.8.7 2.1-.3 1.3-4.4.6-9.9.7-14.4z"/><path class="gray" d="M276.1 163.1c-.2-1.1-1.8-.9-2.1 0-1.8 6.1-1.6 12.9-2 19.2-.4 6.7-1.3 13.7-.8 20.4.1 1.5 2.5 2.1 2.9.4 1.2-6.5 1.1-13.3 1.5-19.8.4-6.7 1.5-13.7.5-20.2z"/><path class="gray" d="M283.4 170.8c-.1-1.1-1.5-1.3-1.9-.3-1.8 5-1.8 10.8-2 16s-.7 11.1.8 16.1c.4 1.2 2.4 1.4 2.6 0 .9-4.9.1-10.2.2-15.1 0-5.5.9-11.3.3-16.7z"/><path class="gray" d="M292 164.9c-.2-.7-1.2-.9-1.5-.2-2.6 5.4-2.1 12.7-2.5 18.6-.4 6.6-1.6 14-.3 20.5.3 1.4 2.4 1.3 2.7 0 1.5-6.2.9-13.2 1.3-19.5.2-6.2 1.9-13.5.3-19.4z"/><path class="dark" d="M294.9 204.4c.5-7.1 1-14.1 1.3-21.2l.7-15.9s0-1.8-.1-2.3c-.1-.4-.3-.8-.7-1.1-.2-.1-.9-.4-1.1-.5-.3-.1-1.6-.4-2.1-.4-1-.1-2-.1-3.1.4-.5.2-1.1.6-1.5 1.1s-.7 1.1-.8 1.7c-.2 1.1-.7 16-.7 16l-.8 21.2c-.1 1 2.2 1.1 2.2.1l.8-21.2.4-10.6.1-2.6c0-.9 0-1.8.2-2.5.1-.6.4-.9.9-1.2.5-.2 1.3-.3 2.1-.2.4 0 .8.1 1.2.2.2 0 .4.1.5.1s.1 0 .2.1v1.6l-.2 5.3-.5 10.6c-.3 7-.8 14.1-1.3 21.1 0 .7 2.2.9 2.3.2z"/><path class="dark" d="M279.9 203.8c-.3-6.3-.3-12.7 0-19.1.2-3.2.4-6.3.8-9.5l.6-4.5 3.3.1c.4 0 .5-2.2.1-2.2l-2.4-.1h-1.5c-.8.1-1.5.7-1.7 1.5 0 .1-.1.2-.1.3 0 0-1.2 11.1-1.4 14.3-.3 6.4-.4 12.9 0 19.3.1.4 2.3.2 2.3-.1z"/><path class="dark" d="M271.4 204.5l1.6-25.7.8-12.9.1-2.5s1.4-.1 1.9-.1 2.6.3 2.4.3l-.2 2c-.1.6 2.2.8 2.2.3l.2-1.6s.1-.9 0-1.2c0-.5-.3-1-.7-1.3-.4-.3-1.8-.6-2.1-.7-.6-.1-4.6.1-4.6.1l-1.2.2v.4l-.2 4-.8 12.9-1.6 25.7c-.1.4 2.2.6 2.2.1z"/><path class="dark" d="M262.9 203.8c0-6 .2-11.9.5-17.9.1-3 .3-6 .5-8.9l.2-2.2c0-.4.1-.7.1-.9l.1-.2 3.9-.3c.4 0 .3-2.3-.1-2.2l-3.4.2c-.4 0-1 .1-1.6.5s-1 1.1-1.1 1.6-.4 3.5-.4 3.5c-.2 3-.9 21-1 27 0 .1 2.3.2 2.3-.2z"/></g><g class="swirls"><path class="highlight" d="M75.5 49.2s-.5.4-1.4 1.1c-.9.7-2.2 1.7-4.1 2.6-.9.5-2.1.9-3.3 1.1-1.3.2-2.7.2-4.1-.3-1.4-.5-2.6-1.3-4-1.8-.7-.3-1.3-.4-2-.4s-1.4.1-2.1.4c-1.4.5-2.6 1.6-3.6 2.9-1 1.3-1.9 2.7-2.7 4.3-.7 1.6-1.5 3.2-2 4.8s-.7 3.4-.3 4.9c.5 1.5 1.6 2.8 3 3.4s2.9.1 3.6-1.1c.7-1.2.6-2.9 0-4.2-.3-.6-.7-1.2-1.3-1.6s-1.2-.7-1.9-.9c-1.3-.4-2.8-.4-4.3 0-1.5.3-3 1-4.4 1.9-2.8 1.8-5.2 4.5-6.9 7.5-1.7 3.1-2.6 6.5-2.9 10-.2 3.4.2 6.8.9 9.9.8 3.1 1.8 5.9 3 8.4 1.1 2.5 2.4 4.6 3.6 6.2 1.2 1.6 2.3 2.7 3.2 3.5.8.7 1.3 1 1.3 1 1.1.7.6 1.5-.5.7 0 0-.5-.3-1.4-1.1-.9-.7-2.1-1.9-3.4-3.6-1.3-1.6-2.6-3.8-3.8-6.3s-2.4-5.4-3.2-8.6c-.8-3.2-1.3-6.7-1.1-10.4.2-3.6 1.2-7.3 2.9-10.7 1.7-3.3 4.3-6.2 7.4-8.2 3-2 6.8-3.1 10.2-2.2.9.2 1.7.6 2.4 1.2.8.6 1.4 1.4 1.8 2.3.8 1.7.9 3.9-.1 5.8-.5.9-1.5 1.7-2.5 2s-2.2.2-3.2-.2c-2-.8-3.3-2.5-3.9-4.5-.5-2-.2-4 .3-5.8.6-1.8 1.3-3.4 2.1-5.1.8-1.6 1.8-3.2 2.9-4.5 1.1-1.4 2.5-2.6 4.2-3.2.8-.3 1.7-.4 2.6-.4.9.1 1.7.2 2.5.6 1.5.6 2.7 1.4 3.9 1.9 2.4.9 4.8.2 6.6-.6 1.8-.9 3.1-1.8 4-2.5s1.4-1.1 1.4-1.1c1.1-.6 1.6-.1.6.9z"/><path class="highlight" d="M169.7 40.5s-.2.2-.5.4c-.3.3-.8.6-1.4.9-1.2.7-2.8 1.2-4.2 1.2-1.3.1-3-.2-4.3-.8-.6-.3-1.1-.6-1.5-.8l-.6-.4c-.1-.1.3-.8.5-.8 0 0 .2.1.6.2.4.1.9.3 1.4.4 1.2.3 2.6.3 3.8.3 1.1-.1 2.6-.3 3.7-.7.6-.2 1-.4 1.4-.6.3-.2.5-.3.5-.3.2.3.7.8.6 1z"/><path class="highlight" d="M282.9 112.9s.6-.2 1.6-.6 2.5-1.1 4.2-2.3c1.6-1.2 3.4-2.9 4.9-5.2 1.4-2.3 2.4-5.2 2.6-8.5.2-3.2-.6-6.7-2.3-9.7-1.6-3.1-4.5-5.4-7.2-8-1.4-1.3-2.7-2.7-3.7-4.3-1-1.6-1.9-3.4-2.1-5.4s.3-4 1.4-5.6c1-1.6 2.7-2.9 4.7-3 1-.1 2 .1 2.9.6s1.7 1.3 2 2.5c.1.6.1 1.2-.2 1.8-.2.6-.6 1-1 1.4-.8.7-1.6 1.1-2.4 1.6-3.2 1.7-7 3-11 2.7-1.9-.1-3.9-.6-5.6-1.6s-3.2-2.3-4.3-3.9c-1.1-1.6-1.7-3.5-1.8-5.4 0-1.9.6-3.7 1.2-5.2.6-1.6 1.2-3 1.4-4.5.2-1.4 0-2.8-.6-3.9s-1.7-1.9-2.7-2.4-2.1-.8-3.1-1c-2-.2-3.6 0-4.8.2-1.1.2-1.7.3-1.7.3-1.4.3-1.5-.6-.2-.9l1.8-.3c1.1-.2 2.9-.5 5-.3 1.1.1 2.3.4 3.5 1s2.3 1.5 3.2 2.8c.4.7.7 1.4.8 2.2.1.8.1 1.6 0 2.5-.2 1.6-.9 3.2-1.4 4.7-.6 1.5-1.1 3.1-1 4.7 0 1.6.6 3.2 1.6 4.6s2.3 2.6 3.8 3.4 3.2 1.3 5 1.4c3.5.2 7-1 10.1-2.6.8-.4 1.5-.8 2-1.3s.7-1 .6-1.5-.6-1-1.1-1.4c-.6-.3-1.2-.5-1.8-.4-2.7.2-4.9 3.6-4.5 6.7.2 1.6.8 3.2 1.8 4.7.9 1.5 2.1 2.8 3.4 4.1 2.6 2.5 5.6 5.1 7.4 8.5 1.8 3.3 2.5 7 2.3 10.5-.2 3.4-1.3 6.6-2.9 9s-3.5 4.2-5.2 5.5c-1.8 1.2-3.3 1.9-4.4 2.3s-1.7.6-1.7.6c-1.6 0-1.7-.7-.5-1.1z"/></g><g class="person"><path class="gray" d="M191.4 100.5c-.8-2.1-2.4-3.4-4-5.1-1.2-1.3-1.6-2.5-.9-4.3.3-.7.8-1.4.8-2.2.1-2.9-3.4-2.4-6.1-1.5-.2-.3-.6-.5-1-.5-.8-.1-.7 0-1.2-.5-.3-.3-.4-.8-.7-1.1-.7-.8-1.7-1.4-2.8-1.6-1.5-.3-2.9.3-3.7 1.4-1.8-.4-3.6-.7-5.4-1.4-1.7-.7-3.5-1.8-5.4-1.3-2.2.6-3.5 2.8-4 4.9h-.9c-1 0-1.9-.4-2.9-.6-1.3-.3-2.6-.2-3.7.6s-1.6 2.2-2.7 3c.1 0-.3.1-.7.2-.6-.8-.6-1.8-.3-3 2.4-3.5 4.5-7.2 6.3-10.8.8-1.6-1.3-2.7-2.3-1.4-3.9 5.2-8.3 10.6-11.1 16.6-.3.3-1.5 3.9-1.6 4.2-.2.5-2.4 6.4-2.5 6.6-2.8 7.8-1 19.2-.9 27.4.2 7.7 1.4 15.4 6.3 21.5 4.1 5.1 10 9.1 16.7 8.8.4 0 .5-.5.2-.7-4.8-2.6-9.8-5.1-13.3-9.4-4.3-5.3-5.6-11.9-5.9-18.5-.3-5.9-.2-11.8-.2-17.6.1-6.4 1.3-12.8 6.7-15.6 1.3-.1 2.5-.1 3.7-.6.4-.2.8-.4 1.1-.6 1 .2 2.3-.4 3-1.2.6-.7.9-1.5 1.1-2.3.8-.1 1.5-.2 2.3-.4.6 1.7 1.5 3.4 2.2 4.7.5.9 2 .7 2.3-.3.5-2.1 1.3-4.3 2.4-6.1.7-1.2 1.5-1.9 2.5-2.3l.6.3c.3.2.7.3 1.1.5.7 1.4 1.6 2.5 3.6 1.8.6-.2 3-2.3 3-2.2 0 .3-1.3 1.2-1.5 1.4-.7.8-1.1 1.6-1 2.7s1.3 2 2.3 1.3c3.6-2.2 6.5-3.5 10.5-3.1 0 .2.7 4.5 7.3 8.6.5.2.8 0 .7-.3z"/><path class="gray" d="M174 69.8c-1 1.1-1.5 1.7-2.2 3s-1.5 2.5-1.8 4c-.1.5.5.8.9.5 1.1-1 4.6-6.4 3.1-7.5z"/><path class="gray" d="M162.8 74.8c-.7.5-1.2 1.2-1.6 1.9-.4.7-.7 1.5-.7 2.3 0 .3 1 1.4 2 0 .4-.5 2.6-4.9.3-4.2z"/><path class="gray" d="M188.3 71.7c-.9.6-1.9 1.3-2.7 2.1-.2.2-.5.6-.6.7-.2.2-.6 1.1-.8 1.4-.2.3.6.9.8.7s6.6-4.3 3.3-4.9z"/><path class="gray" d="M192.1 79c-2.1-.1-5.3 1.2-5.5 3.6 0 .5.5.7.9.6.8-.1 6.4-4.1 4.6-4.2z"/><path class="gray" d="M193 86.6c-1.3-.6-2.9.4-3.9 1.1-1.2.8-2.1 1.9-1.9 3.4.1.6 6.1-4.3 5.8-4.5z"/><path class="gray" d="M131 118.4c-.9-.3-1.9 0-2.6.6-.1 0-.2-.1-.3-.1-.4-.2-.7.4-.5.7.1.2 1.8 6.2 4.5 3.7s.1-4.6-1.1-4.9z"/><path class="gray" d="M192.2 119.4c-.8.1-1.2.7-1.1 1.4.1.6-.7 2.5-1 3.1-.2.5-.2 1.2.2 1.6 1.6 1.3 3.7-.4 4.2-2.1.4-1.5-.5-4.2-2.3-4z"/><path class="gray" d="M162.3 161.8c-.1-.2-2.2-.4-2.5-.5-.4-.2-1.6 3.4-2.6 4.1-5.6 2.4.6 6.7 2.8 5.8.9-.4 1.4-1.5.2-2-.6-.3-1.8-.4-1.6-1.3.2-.7 1.3-1.2 1.8-1.7s1-1.3 1-2c.1-.2.2-.3.3-.5.2-.3.4-.7.6-1 .2-.1.2-.6 0-.9z"/><path class="gray" d="M165.9 133.7c-5.3 1.2-7.5-3.1-7.8-2.6-1 1.7 0 3.8 1.5 4.9 1.6 1.1 4.1 1.1 5.6-.1.7-.5 1.2-1.4.7-2.2z"/><path class="gray" d="M176.1 137c-7.8 9.2-21.5 9.6-29.8.6-.8-.9-2.6 0-2.1 1.2 2.1 5.9 11 8.7 16.7 8.9 7 .3 13.7-3.2 17.2-9.3.5-1.1-1.1-2.5-2-1.4z"/><path class="gray" d="M165.1 149c-.9-.6-1.7-.2-2.6-.1-.9.1-1.8-.1-2.7.2-.7.3-.9 1-.4 1.6.8 1 2.1 1 3.3.9s2.4-.3 2.9-1.6c.1-.4-.2-.8-.5-1z"/><path class="gray" d="M154.3 167.5c-1.7-.9-10 2.9-11.5 4.2-3.3.6-1.2 3-1.2 4.6-.1 2.1-1.3 8.2 2 6.7 1-1.1 1.1-2.1 1.2-3.6.1-1 .1-2 .2-3 .1-1.4-.1-1.7.9-2.5 2.3-1.8 7.5-1.9 8.4-5-.1-.2.1-1.3 0-1.4z"/><path class="gray" d="M149.7 181.9c-.4-1-1.8-.3-1.9.7-.4 6.2.1 10-.4 16.2-.2 1.9 2.9 2.6 3.1.8.8-5.9 1.3-11.9-.8-17.7z"/><path class="gray" d="M178.7 181.5c-1.1-.4-2.4-.5-3.6-.9-1.1-.4-2.1-.9-3.2-.9-.5 0-.8.4-.7.9.4 1.3 9.4 5.3 7.5.9z"/><path class="dark hand" d="M101.5 144.8c-1.2.7-2.6 1.2-4 1.2-1.4.1-2.8-.2-4.3-.7s-3-1.1-4.7-1.4c-1.7-.3-3.6-.4-5.4.3-.3.1.7 2.2.8 2.1 1.2-.5 2.7-.5 4.1-.2s2.9.8 4.5 1.3 3.3.9 5.1.8c1.8-.1 3.5-.6 5.1-1.5.2-.1-1.1-2-1.2-1.9z"/><path class="dark hand" d="M218.7 146.7c1.5.9 3.3 1.4 5.1 1.5s3.6-.3 5.1-.8c1.6-.5 3-1.1 4.5-1.3 1.4-.3 2.9-.3 4.1.2.1.1 1.1-2 .8-2.1-1.8-.7-3.7-.6-5.4-.3s-3.2.9-4.7 1.4-2.9.8-4.3.7c-1.4-.1-2.8-.5-4-1.2-.2-.1-1.4 1.8-1.2 1.9z"/><path class="dark" d="M164.9 131.7c-.4.6-1.1 1-2 1-.8.1-1.6-.2-2.1-.8-.4-.5-.6-1.4-.4-2.2.2-.8.7-1.5 1.4-1.7.1 0-.7-2.2-.9-2.1-1.4.6-2.3 1.9-2.7 3.3-.3 1.3-.1 2.9.9 4.1 1 1.2 2.5 1.7 3.9 1.6 1.4-.1 2.8-.7 3.7-2 .2-.1-1.8-1.3-1.8-1.2z"/><path class="dark" d="M179.8 136.3l-1.5-1.4c-.4.4-1 .7-1.7.7s-1.3-.2-1.7-.7l-1.7 1.5c.4.4.8.6 1.2.8-3.3 3.8-8.4 6.1-13.5 6.1-5.3-.1-10.5-2.7-13.7-6.9.5-.3 1.1-.7 1.5-1.2l-1.5-1.5c-.9 1-2.3 1.5-3.7 1.5l-.1 2.2c.6 0 1.1-.1 1.6-.2 3.6 5 9.7 8.2 15.9 8.3 6.2.1 12.3-2.9 16.1-7.8 1-.1 2-.5 2.8-1.4z"/><path class="dark" d="M166.3 146.8c-2.5.6-5.1.7-7.6.5-.1 0-.3 2.2-.2 2.2 2.8.2 5.6.1 8.3-.5l-.5-2.2z"/><path class="dark eyebrows" d="M152 102.7c-3.9 1.9-7.1 5-9.2 8.8-.1.1 1.9 1.2 2 1.1 1.9-3.4 4.8-6.2 8.3-7.9 0 0-1-2-1.1-2z"/><path class="dark eyebrows" d="M183.5 109c-.8-3.7-3.8-6.6-7.4-7.3-.1 0-.5 2.2-.4 2.2 2.7.5 5.1 2.8 5.6 5.5 0 .1 2.2-.3 2.2-.4z"/><path class="dark" d="M175.5 108.9c-1.7-1.3-3.8-2.1-6-1.9s-4.3 1.5-5.5 3.2c-.6.8-1 1.7-1.3 2.7-.1-.3-.2-.6-.4-.9-.8-1.7-2.3-3.2-4.2-4-1.9-.8-4.1-.5-5.8.4-1.7.9-3.2 2.5-3.6 4.6s.3 4.1 1.4 5.6c.5.8 1.2 1.5 1.9 2.1.8.6 1.6 1.1 2.5 1.4.9.3 1.9.5 3 .4.8-.1 1.6-.3 2.3-.8 1.5-.7 2.5-2 3-3.5.2.4.3.8.6 1.2.5.9 1.2 1.7 2 2.4s1.8 1.3 2.9 1.6c1.1.3 2.2.3 3.2.1 0 0 3.6-.9 5.1-3 1.2-1.7 2.1-3.8 2-6-.1-2.2-1.4-4.3-3.1-5.6zm-14.9 8.3c-.9 2.4-2.5 2.8-2.5 2.9-.8.4-1.9.3-2.9-.1-.7-.2-1.3-.6-1.9-1-.5-.4-1-1-1.5-1.6-.8-1.2-1.3-2.6-1-3.9.2-1.3 1.2-2.4 2.4-3 1.2-.6 2.7-.8 3.9-.3 1.3.5 2.3 1.6 3 2.9.6 1.3.9 2.8.5 4.1zm14.3 1.8c-1 1.3-3.5 2.2-4.1 2.4-1.4.2-2.8-.3-3.9-1.3-.6-.5-1.1-1.2-1.5-1.9-.4-.7-.6-1.4-.7-2.2-.2-1.6.3-3.2 1.2-4.5.9-1.3 2.3-2.2 3.9-2.3 3.1-.3 6.5 2.3 6.6 5.4.1 1.5-.5 3.2-1.5 4.4z"/><path class="dark hand" d="M97.6 150.8c0 2.5.1 5 .4 7.6.3 2.5.8 5.1 1.8 7.5 2 4.9 6 8.8 10.7 11.1 4.6 2.4 9.9 3.4 15 3.3 5.1-.1 10.2-1 15-2.3.7-.2.1-2.4-.6-2.2-4.8 1.3-9.6 2.2-14.5 2.2-4.8.1-9.7-.8-13.9-3-4.2-2.2-7.8-5.6-9.6-10-1.8-4.4-2-9.4-2.1-14.3.1-.4-2.2-.4-2.2.1z"/><path class="dark hand" d="M221.3 150.8c-.1 4.9-.3 9.9-2.1 14.3s-5.4 7.8-9.6 10c-4.3 2.2-9.1 3.1-13.9 3-4.9-.1-9.7-1-14.5-2.2-.7-.2-1.2 2-.6 2.2 4.9 1.3 9.9 2.2 15 2.3s10.4-.9 15-3.3c4.6-2.3 8.7-6.2 10.7-11.1 1-2.4 1.5-5 1.8-7.5s.4-5.1.4-7.6c0-.6-2.2-.6-2.2-.1z"/><path class="dark" d="M198 118.1c-.5-.9-1.4-1.6-2.3-2-1.3-.5-2.6-.5-3.8-.3.4-3.9.9-13.6.9-14.2.1-.1.3-1 .5-1.5l.7-1.3s-.1 0 .2-.1c.2-.1.3-.2.5-.4.2-.1.8-.8.9-1 .1-.2.2-.5.2-.7.1-.3 0-.5 0-.8-.1-.5-.2-.9-.4-1.3-.4-.7-.9-1.2-1.4-1.7-.3-.2-.5-.5-.8-.7l-.4-.3-.2-.2c-.1-.1-.3-.2-.4-.2-.9-.3-1.4-.3-2.1-.4h-.1c.1 0 .2-.1.3-.2.2-.1.5-.3.8-.4.5-.3 1.1-.5 1.7-1 .2-.1.3-.3.5-.4.2-.2.3-.3.5-.6.3-.4.4-1.1.4-1.6s-.2-1-.6-1.5c-.4-.4-.8-.7-1.2-.8-.8-.3-1.4-.4-2-.5-.3 0-.6-.1-.8-.1-.1 0-.2-.1-.4-.1h-.1c-.2.1.3-.3.8-.4.5-.2 1.1-.4 1.7-.7.6-.3 1.3-.6 1.9-1.2.3-.3.6-.7.8-1.1.2-.4.3-.9.3-1.3 0-1.8-1.2-3.2-2.6-3.9-.3-.2-.7-.3-1-.4-.2-.1-.3-.1-.5-.1-.1 0-.4-.1-.3-.1l.5-.5c.5-.6 1.3-1.4 1.6-2.1-.8-.5-1.5-1.1-2.3-1.5-1.9-1-4.1-1.2-6.1-1.1-2.1.2-4 .8-5.8 1.6-.5.2-.9.4-1.3.6l-.8.4 1.1-2.3c.4-.8.6-1.4.9-2.1l.1-.3.1-.1v-.1h-.1l-.6.2-1.1.3c-1.4.3-3.4 1.1-3.9 1.3-2 .8-5.5 3-5.5 3s-3.3.7-3.9.9c-1.4.4-2.8.9-4.2 1.4-1.4.6-2.7 1.2-4 2-.3.2-1.4.9-1.4.9l-.4.2.2-4.2v-1.6-.1l-.5.4-1.8 1.5-2.9 2.6c-2.4 2.3-4.4 4.9-6.3 7.6-3.5 5.4-6.1 11.2-8 17.3-.2.2-.3.4-.4.8-.6 4.4-.9 8.7-1.1 13.1-.2-.1-.4-.2-.7-.3-1-.3-2.1-.3-3.1.2-.9.4-1.7 1.2-2.2 2l-.3.6-.2.6c-.1.2-.1.5-.2.8v.8c.1 1 .5 2 1 2.7.5.8 1.2 1.4 1.9 1.9s1.5.9 2.4 1.1c.4.1.8.1 1.2.2 0 1.6 0 3.1.1 4.7.1 3.1.3 6.3.9 9.5.6 3.2 1.8 6.4 3.7 9.1 1 1.4 1.9 2.5 2.8 3.8 1 1.3 2 2.6 3.4 3.7.3.3 2 1.4 2 1.4l2.1 1.2c1.4.7 3 1.4 4.5 1.9 2.2.7 4.4 1.2 6.7 1.4v1.2s-1.9.8-2.8 1.5c-.2-.2-5.3 2.6-7.7 3.8-1.9.9-7.1 2.2-7.1 2.2l-2.1.4.4 1.3s.5 2.1.6 2.5c.2.9.3 1.8.3 2.6.1.9.1 1.8 0 2.7 0 .4-.1.9-.1 1.3 0 .2-.1.5 0 .9 0 .3.1.8.4 1.2.2.3.6.6.9.7s.5.2.7.3c.5.2 1.1.3 1.6.2 1 0 1.9-.3 2.7-.7.4 5.1-.5 10.4-.2 16 0 .1 2.2 0 2.2-.1-.3-5.4.8-11 .2-16.9.8-.4 1.6-.7 2.3-.9.5.1 0-2.2-.3-2-1.3.8-6.1 2.5-6.7 2.5-.3 0-.6 0-.8-.1-.3-.1-.5-.3-.5-.2v-.6c.1-.5.1-1 .1-1.5.1-1 0-2 0-2.9-.1-1-.2-1.9-.4-2.9-.1-.5-.4-1.6-.4-1.6l.9-.2c.7-.2 4.9-1.5 6.2-2.1 1.8-.7 3.5-1.6 5.1-2.7 0 .3 0 .6.1.9.1.8.7 1.5 1.2 1.9.5.4 1 .7 1.5 1 1 .5 2.2.8 3.3 1 1.2.1 2.3 0 3.5-.3 1.1-.3 2.3-.9 3.2-2 .4-.6.7-2.1.7-2.2 1.6.9 3.2 1.8 4.9 2.6 1.3.6 2.7 1.1 4.1 1.5l2.1.6.9.2-.1.2c-.1.5-.2 1-.3 1.4-.2 1-.3 1.9-.4 2.9s-.1 2 0 2.9c0 .5.1 1.9.1 2v.1c-.1 0-.2.1-.5.2s-.5.1-.8.1c-.6 0-2-.5-2-.5 0-.1-3.5-1.7-4.7-2-.2-.3-.6 1.9-.3 2 .8.2 1.7.6 2.6 1.1-.5 5.7.5 11.2.2 16.5-.1.1 2.2.2 2.2.1.3-5.4-.6-10.6-.3-15.7.7.3 1.5.5 2.5.6.5 0 1.1-.1 1.6-.2.3-.1.5-.2.7-.3.3-.1.6-.4.9-.7.3-.4.4-.9.4-1.2 0-.4-.1-1.8-.1-2.2v-2.7c.1-.9.2-1.8.3-2.6.1-.4 1-3.8 1-3.8l-2.1-.4s-2.5-.7-3.2-.8c-1.3-.4-2.6-.9-3.9-1.4-2.2-1-4.3-2.1-6.3-3.4-.5-.8-1.2-1.4-2.3-1.6V162c2.2-.3 4.3-.8 6.3-1.6 3-1.2 5.9-2.7 8.5-4.8 1.3-1.1 2.4-2.3 3.4-3.6.5-.7.9-1.4 1.3-2.1.4-.7.7-1.4 1.1-2.1 1.4-2.9 2.5-6 3.2-9.1.9-4 1.6-8.1 2.2-12.2 1.9.5 3.8 0 5.3-.9 1.5-1 2.7-2.7 2.8-4.7.1-.9-.1-1.9-.6-2.8zm-65.9 2.4v2.5c-.8 0-1.7-.4-2.5-.9-1.1-.7-1.9-1.8-1.9-2.8 0-.1.1-.8.1-.8l.4-.8c.3-.5.7-.9 1.2-1.1 1.6-.7 2.7.9 2.8.9 0 1-.1 2-.1 3zm11.6-35.7c1.7-2.6 3.7-5.1 6-7.3l.9-.9-.2 5.4c1.2-.9 2.3-1.8 3.5-2.6l.5-.3.4-.3c.3-.2.6-.4.9-.5 1.2-.7 2.4-1.3 3.7-1.8 1.3-.5 2.6-1 3.9-1.3l-.1.2-1.4 4.5 3.3-3.3c2.2-2.3 4.9-4.1 7.8-5.3l.7-.3-3.2 6.8 5.1-2.9 1.1-.6.6-.3 1.2-.6c1.7-.7 3.4-1.3 5.1-1.4 1.7-.1 3.5.1 4.9.8l-3.3 3.8c1.2.1 2.6.2 3.8.4.4.1.4.1.5.1.1 0 .3.1.4.1.2.1.5.2.7.3.4.2.7.5 1 .8.2.3.4.7.4 1.1 0 .3-.1.5-.4.8-.3.3-.7.5-1.2.7-.5.2-1.1.4-1.7.7-.3.1-.6.3-1 .5-.2.1-.3.2-.5.4-.3.2-.4.5-.5.7-.3.5-.3 1.1-.4 1.6.3.4.8.8 1.3 1.1.3.1.6.3.7.3.2.1 1.2.2 1.5.3.6.1 1.2.2 1.5.3.4.2.3.2.4.4v.2l-.3.3c-.4.3-.9.5-1.4.8-.3.1-1.2.7-1.4.8-.3.2-.5.4-.7.6-.4.4-.7.8-.9 1.3l-.4 1.4c.5.2.9.4 1.4.6.3.1 1.7.3 1.7.3.6.1 1.3.2 1.6.3 0 0 .9.6 1.1.8.4.4.7.8.9 1.1.6.8-.4 1.2-.5 1.3l-.6.4c-.1.1-.5 1.1-.5 1.1l-.5.8c-.1.2-.2.5-.3.8-.5-.6-1-1.1-1.5-1.7-.7-.7-1.5-1.4-2.3-2-.4-.3-.9-.6-1.3-.8l-.3-.1v-.1-.2c0-.5 0-.9-.2-1.4-.2-.4-.4-.8-.7-1.2l-.1-.1 1.9-2.7.5-.7.2-.4.1-.1H186.8l-1.7-.3c-.6-.1-1.2-.1-1.8-.2h-1c-1.3 0-2.7.3-3.9.6l-.5.2.1-.5c.1-.6 0-1.3-.4-2s-1-1.1-1.7-1.3c-.7-.2-1.4-.1-2 .1-.6.2-1.1.5-1.5.8-.9.7-2.2 2-2.2 2l-.6-1.2c-.1-.2-.1-.5-.4-.5-1.1-.2-1.3-.2-1.8-.3-.8-.2-4.6-1.8-4.8-1.9l-1.2-.7-2.6 7.8c.1.1-.2-.4-.5-.6-.2-.3-.5-.6-.8-.9-.6-.6-1.2-1-2.1-1.3-.8-.3-1.7-.4-2.6-.2-.9.2-1.8.6-2.4 1.3-.3.4-.6.9-.7 1.3-.1.4-.2.8-.2 1.2-.1.7-.2 1.1-.3 1.2 0 0-.1.1-.3.1h-.8c-3-.2-5.9.8-8.4 2.1-.8.4-1.4.9-2.1 1.4 1.6-4.2 3.6-8.2 6.1-12zm21.1 81.5s.1.4.1.5c.1.7 0 1.6-.3 2.1-.4.5-1.1.9-1.9 1.2-.8.2-1.7.3-2.6.2-.9-.1-1.8-.3-2.5-.7-.4-.2-.8-.4-1.1-.7-.3-.2-.4-.4-.4-.6-.1-.5.1-1.3.7-1.7.3-.3.9-.6 1.5-.9h2.2v-3.5h.7c.4 0 .7 0 1.1-.1v4.2h2.5zm21.5-28.2c-.7 3-1.7 5.9-3.1 8.6-.3.7-.7 1.4-1 2.1-.4.7-.7 1.3-1.1 1.9-.8 1.2-1.9 2.3-3 3.2-2.3 1.9-5 3.4-7.8 4.5-1.4.5-2.8 1-4.3 1.2-1.5.3-3 .4-4.5.4-6 0-12.1-2.1-16.9-5.6-1.1-.9-2.1-2-3-3.3-.9-1.2-1.9-2.6-2.8-3.7-1.7-2.5-2.8-5.3-3.4-8.2-.6-3-.7-6.1-.9-9.2-.1-3.1-.2-6.2-.1-9.4.1-5.9.5-11.9 1.1-17.7.2-.1 1.4-4.3 5.2-5.6 2.2-1.2 4.7-2 7.1-1.8.3 0 .7.1 1.2 0 .5 0 1.1-.2 1.5-.7.5-.4.7-1 .8-1.4.1-.5.2-.8.2-1.2 0-.3.2-1.1.3-1.3.2-.3.6-.5 1.1-.6.5-.1 1 0 1.4.1.4.1.9.5 1.3.8.2.2.9 1 1.3 1.6.7 1.2 1.4 2.5 2 3.8l3.4-10s1 .4 1.4.6c.9.4 4 1.1 3.7 1.1l.3.6c.2.3 1.1 2 1.1 2 .1 0 .2-.1.3-.1.4-.2.8-.3 1.2-.5.2-.1 1.1-.6 1.1-.6.8-.7 1.4-1.4 2-1.8.6-.4 1.3-.6 1.6-.5.2 0 .3.2.4.3.1.1.1.8.1.8l-.2.7-.3.7-.5.8-2.4 3.8 3.8-2.2c.7-.4 1.3-.7 1.9-1 .3-.1 1.1-.4 1.2-.4 1.1-.3 2.2-.5 3.3-.5h.8l-2.3 3.2 1.3.3c.2 0 .7.3.7.3.1.1.2.2.2.4.1.1.1.3.1.4v.1c0 .1-.2.3-.3.5l-.6.9 1.3.5c.2.1.5.2.7.3l.4.2c.4.2.7.4 1.1.7.7.5 1.4 1.1 2 1.7 1.3 1.3 2.4 2.7 2.9 4.3-.5 11.4-1.9 22.8-4.3 33.9zm8.2-14.3c-1 .7-3.6.8-3.7 1.2.3-2.3.6-4.6.8-6.8 1.1-.3 2.3-.3 3.2 0 1.1.4 1.6 1.4 1.5 2.6-.1 1.1-.8 2.3-1.8 3z"/></g><g class="site4"><path class="gray" d="M109.6 95c-4.4-2.1-9.5-.5-14.2-.2-6.5.4-13 0-19.5 0-3.6 0-7.9-.1-11.8.6 0-.5-.3-1-.9-1.1-1.2-.2-2.3-.3-3.3-.2-.2-.3-.5-.5-.9-.6-.4-1.4 1.1-2.9 2.6-3.4 1.5-.4 3.4-.3 4.9-.4 2.4-.1 5 0 7.4-.4 1.7.1 3.5.2 5.3.1 4 .3 8.2 0 12 0 5.7.1 11.7.5 17.3-.6 1.2-.3.9-1.9-.3-2-5.9-.3-12 .2-17.9.1-5.5-.1-11.9-1.1-17.1.4-1.9-.5-4.1-.1-6 0-1.2.1-2.6 0-3.9.1-.1-.1-.2-.2-.4-.3-1.7-.4-4.1 0-5.8.4-1.9.4-3.4 1.5-4.3 3.1-.7 1.4-1 3.4.7 4.4.7.4 1.5.7 2.4.7l-.3.3c-.1-.1-.2-.2-.4-.2-1.1-.2-1.8.6-2 1.5-.1.7.2 1.3.7 1.7-.4 1.4-.6 2.9-.6 4.6.1 4.8.4 9.7.4 14.5.1 5.4-.7 10.8-.8 16.2 0 .9 1.3 1 1.6.2 2.3-5.9 2.3-12.8 2.3-19.1 0-3.3-.1-6.7-.2-10 0-.7-.1-1.5-.1-2.3.3-.9.8-2.1 1.5-3.2 6.7-3.7 15.2-2.4 23-2.3 9.4.1 18.8-.1 28.1-1.1.9.1 1.5-1 .5-1.5z"/><path class="dark" d="M73.3 136.7l-10.1-.3c-3.3-.1-6.6-.2-9.6-1.3-.2-.1-1 2.1-.8 2.1 3.4 1.2 6.9 1.3 10.3 1.4l10.1.3c.2.1.2-2.2.1-2.2z"/><path class="highlight" d="M89.6 121.9c-1.5-2.5-3.7-2.2-5.9-2.1-2.4.1-4.8.1-7.2.4-3.7.5-3.8 7.9 0 8.2 2.4.2 4.8.1 7.2.1 2.2 0 4.4.3 5.9-2.3.7-1.4.8-2.9 0-4.3z"/><path class="dark" d="M111.7 136.4c.2-6.3.3-12.6.3-19 0-6.3 0-12.6-.2-19 0-1.6-.1-3.2-.2-4.8-.1-1.6-.3-3.4-1.3-5.1-.5-.8-1.3-1.5-2.1-2s-1.6-.8-2.5-1c-1.7-.4-3.3-.5-5-.6-6.3 0-12.6.2-19 .3l-18.9.3c-1.6 0-3.1 0-4.8.2-.8.1-1.7.3-2.6.7-.8.4-1.7 1-2.3 1.7-1.3 1.5-1.7 3.4-1.8 5-.1 1.7 0 3.3.1 4.9.8 12.5.4 25.1 0 37.7-.1 1.7 2.2 1.8 2.2.1.4-12.6.8-25.3 0-37.9-.1-1.6-.2-3.1-.1-4.6.1-1.4.5-2.8 1.3-3.7.8-1 2-1.4 3.5-1.6 1.4-.2 3-.2 4.6-.2l18.9-.3c6.3-.1 12.6-.3 18.9-.3 1.5 0 3 .1 4.4.5s2.6 1 3.2 2c.7 1 .9 2.5 1 4s.1 3.1.2 4.7c.2 6.3.2 12.6.2 18.9s-.1 12.6-.3 18.9c0 1.5 2.2 1.6 2.3.2z"/><path class="dark" d="M109.7 92.8l-56.2 1.5c-.6 0-.6 2.3.1 2.2l56.2-1.5c.5.1.4-2.2-.1-2.2z"/><path class="dark" d="M96.2 110.3l-14.6.5c-4.9.2-9.7.3-14.5.1-.3 0-.5 2.2-.1 2.2 4.9.3 9.8.1 14.7-.1l14.6-.5c.2 0 .2-2.2-.1-2.2z"/><path class="dark" d="M93.1 115.2c-7.6.5-15.3 0-23.1.6-.3 0-.1 2.3.2 2.2 7.6-.6 15.3-.1 23.1-.6.1.1 0-2.2-.2-2.2z"/><path class="dark" d="M86.1 123c-2.9.5-6.1-.1-9.5.6-.1 0 .3 2.2.4 2.2 2.8-.6 6-.1 9.4-.6.2 0-.2-2.2-.3-2.2z"/><path class="dark" d="M64.1 99.3c-2 .3-4.1.3-6.3.3-.1 0-.1 2.3 0 2.2 2.1 0 4.3 0 6.6-.3.1.1-.2-2.2-.3-2.2z"/><path class="dark" d="M101.6 99.4h-4.1v2.2h4.1v-.3-.8-.8-.3z"/><path class="dark" d="M106.9 99.4h-4.1v2.2h4.1v-.3-.8-.8-.3z"/><path class="dark" d="M96.4 99.4h-4.1v2.2h4.1v-.3-.8-.8c.1-.1.1-.3 0-.3z"/></g><g class="site3"><path class="gray" d="M150 34.2c-4.9-2.1-10.5-.5-15.7-.2-7.2.4-14.5 0-21.7 0-4 0-8.7-.1-13.1.6 0-.5-.3-1-1-1.1-1.4-.2-2.6-.3-3.6-.2-.2-.3-.5-.5-1-.6-.4-1.4 1.3-2.9 2.9-3.4 1.7-.4 3.7-.3 5.4-.4 2.7-.1 5.6 0 8.2-.4 1.9.1 3.9.2 5.8.1 4.5.3 9.1 0 13.3 0 6.3.1 13 .5 19.2-.6 1.4-.3 1-1.9-.3-2-6.6-.3-13.3.2-19.9.1-6.1-.1-13.2-1.1-19 .4-2.1-.5-4.5-.1-6.7 0-1.4.1-2.9 0-4.4.1-.1-.1-.2-.2-.4-.3-1.8-.4-4.6 0-6.4.4-2.1.4-3.8 1.5-4.8 3.1-.8 1.4-1.1 3.4.8 4.4.8.4 1.7.7 2.6.7l-.3.3c-.1-.1-.3-.2-.5-.2-1.2-.2-3-.4-3.2.5-.1.7-.3 2.3.3 2.7-.5 1.4.8 3 .8 4.6.1 4.8.4 9.7.5 14.5.1 5.4-.7 10.8-.9 16.2 0 .9 1.4 1 1.8.2 2.6-5.9 2.5-12.8 2.6-19.1 0-3.3-.1-6.7-.2-10 0-.7-.1-1.5-.1-2.3.4-.9.9-2.1 1.7-3.2 7.5-3.7 16.9-2.4 25.5-2.3 10.4.1 20.8-.1 31.2-1.1 1 .1 1.6-1 .6-1.5z"/><path class="dark" d="M151.6 57.6c.1-2.9.3-5.8.3-8.7.1-2.9 0-5.8-.1-8.7l-.2-4.3c-.1-1.4-.1-2.9-.3-4.4-.2-1.5-.7-3.2-1.9-4.5s-2.8-2-4.3-2.4c-3-.8-6-.6-8.9-.6l-8.7.2-17.3.3-8.7.2-4.3.1c-1.4 0-2.9 0-4.4.2s-3.1.5-4.6 1.5c-1.4 1-2.4 2.5-2.9 4.1-.9 3.2-.4 6.2-.2 9 .4 5.8.8 11.5 1 17.2s.2 11.5 0 17.2c-.1 1.6 2.2 1.7 2.2.1.2-5.8.2-11.6 0-17.4s-.6-11.6-1-17.3c-.2-2.9-.5-5.7.2-8.2.3-1.2 1-2.2 2-2.9 1-.7 2.2-1 3.6-1.1 1.3-.1 2.8-.1 4.2-.2l4.3-.1 8.6-.2 17.3-.3 8.6-.2c2.9 0 5.8-.1 8.3.5 1.3.3 2.4.9 3.2 1.7.8.8 1.2 2 1.3 3.3.2 1.3.2 2.8.3 4.2l.2 4.3c.1 2.9.1 5.7.1 8.6-.1 2.9-.2 5.7-.3 8.6.1 1.3 2.3 1.4 2.4.2z"/><path class="dark" d="M149.5 32.4L87.2 34c-.7 0-.7 2.3.1 2.2l62.3-1.6c.6.1.5-2.2-.1-2.2z"/><path class="dark" d="M129.8 39.9c-6.7.3-13.4.3-20.1.3-.2 0-.2 2.3 0 2.2 6.7 0 13.5 0 20.2-.3.2 0 .1-2.3-.1-2.2z"/><path class="highlight" d="M126.1 46.5c-1.2-2-2.9-1.7-4.5-1.6-1.9.1-3.7.1-5.6.3-2.9.4-3 6.1 0 6.3 1.9.2 3.7.1 5.6.1 1.7 0 3.4.2 4.5-1.8.6-1 .7-2.2 0-3.3z"/><path class="dark" d="M123.5 47.1c-2.2.4-4.7-.1-7.3.5-.1 0 .4 2.2.4 2.2 2.1-.4 4.6 0 7.2-.4.1-.1-.3-2.3-.3-2.3z"/><path class="dark" d="M151.3 57.8c-.4-.7-.8-1.5-1.2-2.3-.5-.8-.9-1.6-1.9-2.4l-.4-.2c-.2-.1-.3-.1-.5-.2-.3-.1-.7-.1-1-.1-.6 0-1.1.1-1.6.3-1 .4-1.7.9-2.5 1.4-.7.5-1.4.9-2 1.2-.3.1-.6.2-.9.2-.3 0-.4 0-.7-.1-.6-.2-1.2-.7-1.8-1.2s-1.2-1.1-1.9-1.7c-.6-.6-1.3-1.2-2-1.7s-1.5-1.2-2.7-1.4c-.3-.1-.6-.1-1 0-.4 0-.7.2-1 .3-.5.3-1 .6-1.3 1-.7.7-1.2 1.3-1.8 1.9l-6.9 7.6-3.5 3.8c-1.1 1.2-2.3 2.4-3.5 2.8-.6.2-1.2.2-1.8 0-.6-.2-1.2-.7-1.9-1.2s-1.3-1-2-1.6c-.6-.5-1.3-1.1-2-1.7-.4-.3-.7-.5-1.1-.8l-.6-.3c-.2-.1-.5-.3-.8-.4-1.1-.4-2.1-.4-3.3 0-1.1.4-1.8 1.1-2.5 1.7-.6.6-1.3 1.2-1.9 1.8-2.5 2.4-4.8 5.1-6.8 7.8-.6.8 1.3 2.1 1.8 1.4 2-2.7 4.2-5.2 6.6-7.6.6-.6 1.2-1.2 1.8-1.7.6-.6 1.2-1.1 1.7-1.2.5-.2 1.2-.2 1.8 0 .1 0 .3.1.4.2l.5.3c.3.2.7.4 1 .7.6.5 1.2 1 1.9 1.6.6.6 1.4 1.1 2 1.6.7.5 1.4 1.1 2.5 1.5 1 .4 2.2.4 3.3.1 2-.7 3.3-2.2 4.5-3.4l3.5-3.8 6.9-7.6c.6-.6 1.2-1.3 1.7-1.8.3-.3.5-.5.7-.6.1-.1.2-.1.3-.1h.3c.5.1 1.1.5 1.7 1 .6.5 1.2 1 1.9 1.6.6.6 1.3 1.2 1.9 1.8.7.6 1.4 1.2 2.4 1.6.3.1.5.2.9.2.3.1.6 0 .9 0 .6 0 1.1-.2 1.6-.4.9-.4 1.7-1 2.4-1.4.7-.5 1.3-.9 2-1.2.3-.1.6-.2.9-.2h.4l.1.1c.4.3.9.9 1.2 1.6l1.2 2.3c.6.8 2.4-.5 2.1-1.1z"/><path class="dark" d="M98 50.8c1-.4 1.7-1.3 2-2.3s.3-2.1-.2-3.1-1.5-1.6-2.5-1.8-2.1-.1-3 .5c-1 .6-1.4 1.6-1.7 2.4-.2.8-.5 1.9.1 3s1.6 1.7 2.7 1.8 2-.3 2.7-.7c.2-.1-.9-2.1-1.1-2-.5.3-1.1.5-1.5.4-.4 0-.7-.3-.9-.6-.1-.2-.1-.7.1-1.3s.4-1 .7-1.2c.3-.2.8-.3 1.3-.2s.8.3 1 .7c.2.3.2.8.1 1.3s-.5.8-.8 1c0 .1.7 2.2 1 2.1z"/><path class="dark" d="M94.1 54.3l.8-1.9-2.1-.9-.8 2s2.1.9 2.1.8z"/><path class="dark" d="M101.8 51.9l-1.5-1.5-1.6 1.6 1.5 1.5 1.6-1.6z"/><path class="dark" d="M103.4 46.4l-2.1-.2s-.2 2.3-.2 2.2l2.1.2c.1 0 .3-2.2.2-2.2z"/><path class="dark" d="M146.5 44.8c-.2.1-.5.1-.7.1h-.2c0-.5-.1-.8-.4-1.1 0 .1.2-.4.2-.8s-.1-.9-.3-1.3c-.5-.8-1.4-1.1-2.2-1-.4 0-.8.1-1.1.3s-.6.4-.9.7c-.2.3-.4.6-.6.8l-.1.2s-.1 0-.2-.1c-.1 0-.2-.1-.4-.1-.5-.1-1.2 0-1.7.3-.3.2-.5.4-.7.8-.2.3-.2.7-.1 1l.1.4H136c-.2 0-.2 1.5 0 1.5h3.8l-.8-1.2-.3-.6v-.1-.1c0-.2 0-.2.1-.3.2-.1.4-.1.6-.1.1 0 .1 0 .2.1.1 0 .1 0 .3.1.4.2.7.4 1.1.5l.3-.8c.1-.3.3-.6.3-.6.1-.2.2-.4.4-.6.3-.3.6-.5.9-.5.4 0 .7.1.8.3.1.1.1.2.1.4 0 .1 0 .2-.1.3 0 0-.1.3-.3.6l.3.6.3.6.1-.1h-.1l.1.7.1.7c.3.1.5.2.8.2.1 0 .3 0 .4.1h.3c.4 0 .7 0 1.1-.1.3-.4-.2-1.8-.3-1.8z"/></g><g class="site2"><path class="gray" d="M239.8 34.2c-4.9-2.1-10.5-.5-15.7-.2-7.2.4-14.5 0-21.7 0-4 0-8.7-.1-13.1.6 0-.5-.3-1-1-1.1-1.4-.2-2.6-.3-3.6-.2-.2-.3-.5-.5-1-.6-.4-1.4 1.3-2.9 2.9-3.4 1.7-.4 3.7-.3 5.4-.4 2.7-.1 5.6 0 8.2-.4 1.9.1 3.9.2 5.8.1 4.5.3 9.1 0 13.3 0 6.3.1 13 .5 19.2-.6 1.4-.3 1-1.9-.3-2-6.6-.3-13.3.2-19.9.1-6.1-.1-13.2-1.1-19 .4-2.1-.5-4.5-.1-6.7 0-1.4.1-2.9 0-4.4.1-.1-.1-.2-.2-.4-.3-1.8-.4-4.6 0-6.4.4-2.1.4-3.8 1.5-4.8 3.1-.8 1.4-1.1 3.4.8 4.4.8.4 1.7.7 2.6.7l-.3.3c-.1-.1-.3-.2-.5-.2-1.2-.2-3-.4-3.2.5-.1.7-.3 2.3.3 2.7-.5 1.4.8 3 .8 4.6 0 1.9.1 3.9.2 5.8-.5 1.9-.7 3.9-1 5.9-.3 1.8-.5 3.7 1.6 4.4.8.3 1.7-.3 1.9-1.1.3-1.1.7-2.3.9-3.6.1-.2.3-.4.4-.6 0-3-.1-6-.2-9 0-.7-.1-1.5-.1-2.3.4-.9.9-2.1 1.7-3.2 7.5-3.7 16.9-2.4 25.5-2.3 10.4.1 20.8-.1 31.2-1.1 1 .1 1.6-1 .6-1.5z"/><path class="highlight" d="M230.2 63.6c-1.7-2.8-4.1-2.5-6.5-2.3-2.7.1-5.4.1-8 .5-4.2.5-4.2 8.7 0 9.1 2.7.2 5.3.1 8 .1 2.4 0 4.9.3 6.5-2.5.9-1.7 1-3.4 0-4.9z"/><path class="dark" d="M241.4 72.6c.5-11.4.5-22.8.2-34.2l-.2-4.3c-.1-1.4-.1-2.9-.6-4.5-.2-.8-.6-1.5-1.1-2.2s-1.2-1.3-1.9-1.7c-1.4-.9-3-1.3-4.4-1.5-3-.4-5.9-.3-8.7-.2l-8.5.2-17.1.3-8.5.2-4.3.1c-1.4 0-2.9 0-4.4.3-1.5.2-3.1.8-4.4 1.9-1.3 1.1-2 2.8-2.3 4.3s-.3 3-.3 4.5V40c0 2.8-.1 5.7 0 8.6l.1 8.5c0 1.6 2.3 1.5 2.2 0l-.1-8.5v-8.5-4.3c0-1.4 0-2.8.3-4 .2-1.3.7-2.3 1.6-3.1.9-.7 2-1.2 3.3-1.4 1.3-.2 2.7-.2 4.1-.3l4.3-.1 8.5-.2 17-.3 8.5-.2c2.8 0 5.7-.2 8.3.2 1.3.2 2.6.6 3.6 1.2s1.7 1.5 2 2.7c.4 1.2.5 2.5.5 3.9l.2 4.2c.3 11.3.3 22.7-.2 34 0 1.3 2.3 1.4 2.3.2z"/><path class="dark" d="M239.4 32.4L177.1 34c-.7 0-.7 2.3.1 2.2l62.3-1.6c.5.1.4-2.2-.1-2.2z"/><path class="dark" d="M230.2 50.9l-13.6.5c-4.5.2-9.1.4-13.5.1-.3 0-.5 2.2-.1 2.2 4.6.3 9.2.1 13.8-.1l13.6-.5c.2.1.1-2.2-.2-2.2z"/><path class="dark" d="M229.9 55.7c-7.1.5-14.3-.1-21.6.6-.3 0 0 2.3.2 2.2 7-.7 14.2-.1 21.5-.6.2.1 0-2.2-.1-2.2z"/><path class="dark" d="M226.5 65c-3.2.5-6.8-.1-10.5.6-.1 0 .3 2.2.4 2.2 3.2-.7 6.7-.1 10.4-.6.1 0-.2-2.3-.3-2.2z"/><path class="dark" d="M188.9 39.7c-2.3.3-4.6.3-7 .3-.1 0-.1 2.3 0 2.2 2.4 0 4.8 0 7.3-.3l-.3-2.2z"/><path class="dark" d="M230.4 39.8h-4.5c-.1 0-.1 2.3 0 2.2h4.6v-.3-.8-.8c-.1-.2-.1-.3-.1-.3z"/><path class="dark" d="M236.3 39.8h-4.5c-.1 0-.1 2.3 0 2.2h4.6v-.3-.8-.8c-.1-.2-.1-.3-.1-.3z"/><path class="dark" d="M224.7 39.8h-4.5c-.1 0-.1 2.3 0 2.2h4.6v-.3-.8-.8c-.1-.2-.1-.3-.1-.3z"/></g><g class="site1"><path class="gray" d="M268.3 95c-4.4-2.1-27.2-.2-33.7-.2-3.6 0-12.1-.7-12.7-.5-5.5 1.4-4.5.9-4.2-.8s1.1-2.9 2.6-3.4c1.5-.4 3.4-.3 4.9-.4 2.4-.1 20.9-.3 24.7-.3 5.7.1 11.7.5 17.3-.6 1.2-.3.9-1.9-.3-2-5.9-.3-49.4.3-51.1.7-1.9.4-3.4 1.5-4.3 3.1.5 3.9.2 38.3.1 43.7 0 .9 1.3 1 1.6.2 2.3-5.9 2.3-12.8 2.3-19.1 0-3.3-.3-11.5-.3-12.3.3-.9.8-2.1 1.5-3.2 6.7-3.7 15.2-2.4 23-2.3 9.4.1 18.8-.1 28.1-1.1.9.1 1.4-1 .5-1.5z"/><path class="highlight" d="M246 106.6c-2.9-.9-7.4-1.8-10.3-.3-4.4 3.1-2.3 17.8-1.9 19.3.8 3.2 3.2 3.5 6.2 3.8 2.9.2 7.4 1.2 9.1-2.1.7-1.3 1.1-10.4 1.2-13.5 0-3.4-.8-6.1-4.3-7.2zm.4 11.8c-.1 1.9.2 5.9-1.2 6.9-1.3.9-4.4.4-5.9.2-2.5-.3-1.9-2.2-2.1-4.4-.2-2.1-.3-4.2-.4-6.3-.1-.9-.4-2.3-.4-3.5 1-1.7 2.4-2 4.4-1.9 2.5.1 5.3.3 6 3.2.2 1.7-.3 4.1-.4 5.8z"/><path class="dark" d="M223.7 99.3c-2 .3-4.1.3-6.3.3-.1 0-.1 2.3 0 2.2 2.1 0 4.3 0 6.6-.3.1.1-.2-2.2-.3-2.2z"/><path class="dark" d="M261.2 99.4h-4.1v2.2h4.1v-.3-.8-.8-.3z"/><path class="dark" d="M266.5 99.4h-4.1v2.2h4.1v-.3-.8-.8-.3z"/><path class="dark" d="M256 99.4h-4.1v2.2h4.1v-.3-.8-.8-.3z"/><path class="dark" d="M230.5 113.2s-.1-2.3-.2-2.5c-.1-.4-.3-.9-.7-1-4.4-.8-7.3-.4-7.8-.4-.2 0-1.2.2-1.4.3l-.6.3c-.3.3-.5.6-.6 1.1 0 .2-.1 1-.1 1l.2 11s0 1.6.1 1.8c.1.4.3.8.7 1.1.4.3.8.4 1.3.4 1 .1 7.3.2 7.3.2.9 0 1.7-.8 1.7-1.7 0 0 .3-2.6.3-3v-2.9c0-1.9-.1-3.8-.2-5.7zm-9.2-1.6s.5-.1.7-.1c.4 0 3.1-.1 4-.1.4 0 .9.1 1.3.1l.8.1s.1 2.1.1 2.2l-3.3 2.9-.1-.1c-.3-.3-.7-.5-1.2-.6h-.7c-.2 0-.5.1-.6.2-.4.2-.7.4-.9.5l-.1-4.9v-.2zm7.1 10.1c0 .5-.2 2.6-.2 2.6s-5.8-.1-6.7-.1v-1.1l-.1-3.7.8-.4c.4-.2.8-.5 1-.6h.1l.2.2.4.4c.2.2.6.3 1.1.3.4 0 .8-.3.9-.4l2.5-2.2v5z"/><path class="dark" d="M246.9 113.2s-.1-2.3-.2-2.5c-.1-.4-.3-.8-.7-1-.2-.1-1.9-.4-1.9-.4-.5-.1-1-.1-1.5-.1-1-.1-4.9.1-5.2.2-.1 0-1 .4-1.2.5-.3.3-.5.6-.6 1.1 0 .2-.1 1-.1 1s.2 12.6.3 12.8c.1.4.3.8.7 1.1.4.3.8.4 1.3.4 1 .1 7.3.2 7.3.2.9 0 1.7-.8 1.7-1.7 0 0 .3-2.6.3-3v-2.9c0-1.9-.1-3.8-.2-5.7zm-9.2-1.6c3.4-.6 6.8 0 6.8 0l.1 1.7c0 .9.1 1.8.1 2.6-1-.6-2.2-.9-3.4-.7-.6.1-1.1.2-1.6.4s-.9.3-1.4.6c-.2.1-.3.2-.5.3 0 0-.1-4.6-.1-4.9zm7 11.5l-.1 1.2h-4c-.9 0-1.8-.1-2.7-.1v-1.1l-.1-3.6s.8-.9 1.5-1.2c.7-.3 1.6-.6 2.3-.7 2-.3 3.2 1.9 3.2 1.8v2.3c0 .5 0 .9-.1 1.4z"/><path class="dark" d="M263.5 113.2l-.1-1.4v-.4c0-.2 0-.5-.1-.7-.1-.4-.3-.8-.7-1-.2-.1-.4-.2-.6-.2l-.6-.1-.7-.1c-.5-.1-1-.1-1.5-.1-1-.1-2-.1-2.9 0-.5 0-1 .1-1.5.1-.2 0-.5 0-.8.1-.1 0-.4.1-.6.2l-.6.3c-.3.3-.5.6-.6 1.1 0 .2-.1.5-.1.6v.4l.2 11v1.1c0 .2 0 .5.1.7.1.4.3.8.7 1.1.4.3.8.4 1.3.4 1 .1 1.9.1 2.9.2h4.4c.9 0 1.7-.8 1.7-1.7l.1-.9.1-.7c0-.5.1-1 .1-1.4v-2.9c0-1.9-.1-3.8-.2-5.7zm-9.2-1.6h.1c.1 0 .4-.1.6-.1.4 0 .9-.1 1.3-.1h2.7c.4 0 .9.1 1.3.1l.8.1.1 1.7c0 .6.1 1.1.1 1.7-.8 1-2.1 1.6-3.6 1.7-.7 0-1.5-.1-2.1-.4-.6-.3-1-.6-1.2-1l-.1-3.4v-.3zm7.1 10.1c0 .5 0 .9-.1 1.4l-.1 1.2h-4c-.9 0-1.8-.1-2.7-.1v-1.1l-.1-4.8c.1.1.2.1.3.2 1 .4 2 .6 3 .6 1.2 0 2.6-.3 3.7-1V121.7z"/><path class="dark" d="M271.5 117.4c0-6.3-.3-22.2-.4-23.8-.1-1.6-.3-3.4-1.3-5.1-.5-.8-1.3-1.5-2.1-2s-1.6-.8-2.5-1c-1.7-.4-3.3-.5-5-.6-6.3 0-37.9.6-37.9.6-1.6 0-3.1 0-4.8.2-.8.1-1.7.3-2.6.7-.8.4-1.7 1-2.3 1.7-1.3 1.5-1.7 3.4-1.8 5-.1 1.7 0 3.3.1 4.9.8 12.5.4 25.1 0 37.7-.1 1.7 2.2 1.8 2.2.1.4-12.6.8-25.3 0-37.9 0-.5-.1-1-.1-1.5.1 0 55.8-1.4 55.8-1.4 0 1.1.1 2.2.1 3.4.2 6.3.2 12.6.2 18.9 0 6.1-.1 12.2-.3 18.3-2.6.7-5.5.8-8.3.9l-10.1.3c-.2-.1-.1 2.2.1 2.2l10.1-.3c3.3-.1 6.9-.2 10.3-1.4 0 0 .2-.7.2-.9.3-6.3.4-12.6.4-19zm-58.4-23.1c-.1 0-.1 0-.1.1v-1.1c.1-1.4.5-2.8 1.3-3.7.8-1 2-1.4 3.5-1.6 1.4-.2 3-.2 4.6-.2l18.9-.3c6.3-.1 12.6-.3 18.9-.3 1.5 0 3 .1 4.4.5 1.4.4 2.6 1 3.2 2 .6.8.8 1.9.9 3.1l-55.6 1.5z"/></g><g class="eyes"><circle class="dark" cx="156.5" cy="115.4" r="1.3"/><circle class="dark" cx="170.2" cy="115.4" r="1.3"/></g></svg>